<svg xmlns="http://www.w3.org/2000/svg" viewBox="0 0 80 70"><linearGradient id="A" gradientUnits="userSpaceOnUse" x1="1.764" y1="15.972" x2="79.25" y2="15.972"><stop offset="0" stop-color="#f3e1f4"/><stop offset=".065" stop-color="#e8d3ea"/><stop offset=".286" stop-color="#cab0cc"/><stop offset=".372" stop-color="#bfa4c1"/><stop offset=".669" stop-color="#a388a5"/><stop offset=".861" stop-color="#8f7491"/><stop offset="1" stop-color="#544156"/></linearGradient><path d="M79.3 11.7c0 .1 0 .1 0 0-2.2 2.8-4.9 5-8.4 5.9-1.2.3-2.5.5-3.8.4-.4 0-.9-.2-1.3-.4-1.5-.7-2.9-1.5-4.3-2.2-4.1-2-8.4-3.3-13-4-2-.3-4-.4-6-.4.2.1.4.2.5.4.2.2.4.3.6.5 0 .1.1.1.2.2a4.44 4.44 0 0 1 .8 1.1c.2.3.3.6.5 1v.1c.1.3.2.7.3 1-.4-.2-.8-.3-1.2-.4-.3-.1-.7-.1-1-.2 0-.1-.1-.2-.1-.3h0c-.2-.3-.3-.5-.5-.7l-.5-.5s0-.1-.1-.1c-.3-.1-.4-.1-.5-.2-.3-.2-.6-.4-1-.5-.1 0-.1-.1-.2-.1-.2-.1-.3-.1-.5-.1-.3-.1-.7-.1-1-.1s-.5 0-.8.1c-.5.1-.9.3-1.4.6-.3.2-.6.4-.9.7h0c-.6.7-1.2 1.3-1.8 2-.6.6-1.1 1.2-1.7 1.8-.1.2-.3.3-.4.5-.2.3-.4.6-.5.9s-.2.5-.2.8v.1c-.1.4-.1.7 0 1.1 0 .3.1.5.2.8.1.2.1.4.2.5 0 .1.1.2.2.3.2.3.4.6.7.8l.2.2a1.38 1.38 0 0 0 .4.3c.3.2.6.4 1 .5.2.1.4.1.6.2.4.1.9.1 1.3.1h.1c.3 0 .5-.1.8-.2.1 0 .2 0 .3-.1.3-.1.6-.3.9-.5s.5-.4.7-.6c.6-.7 1.2-1.3 1.8-2h0c.2-.3.5-.5.7-.8.1-.1.2-.1.3-.1h.7a1.93 1.93 0 0 1 1 .3c.1.1.2.1.3.2.1 0 .1.1 0 .1h0l-.1.1-3 3.3-.3.3c-.3.3-.6.5-.9.7h0c-.3.2-.5.3-.8.5s-.7.3-1.1.4-.8.2-1.2.2H36h-1c-.2 0-.5-.1-.7-.1-.2-.1-.5-.1-.7-.2l-.9-.3c-.1-.1-.2-.1-.3-.2-.2-.1-.3-.2-.5-.3-.1-.1-.3-.2-.4-.3-.1 0-.1-.1-.2-.1l-.6-.6c-.2-.2-.4-.4-.5-.7-.1-.1-.1-.2-.2-.3-.3-.5-.5-1.1-.7-1.7-.1-.3-.1-.5-.1-.8v-.1-.4-.1c0-.5.1-1 .2-1.5 0-.1.1-.2.1-.4.1-.3.2-.5.3-.8.2-.3.3-.6.5-.9.2-.2.3-.4.5-.6l2.7-3 .7-.7.1-.1.6-.6.1-.1c-2.6.3-5.1.7-7.6 1.4-5 1.3-9.5 3.5-13.6 6.4l-8 5.5c-1.1.8-2.3 1.4-3.5 2.1-.1 0-.1.1-.2 0 1-.9 1.9-1.8 2.9-2.6 3.6-3.2 7.4-6.1 11.6-8.5 3.1-1.8 6.4-3.2 9.9-4.4 2.2-.8 4.4-1.4 6.6-1.8.5-.1.8-.3 1-.8a13.14 13.14 0 0 0 .5-1.5c.1.4.3.9.5 1.3.3.6.8.6 1.1.1.4-.5.7-1.1 1-1.6 0 .4-.1.8-.1 1.1s.1.7.2.7c.3 0 .8 0 1-.2.6-.6 1.1-1.2 1.7-1.8l.3-.3-.3 1.7c0 .2.1.4.1.5.2-.1.4-.1.6-.2.6-.7 1.2-1.4 1.7-2.1.1-.1.2-.2.3-.5-.1.5-.2.8-.3 1.2-.1.7.2 1.1.9 1 .6-.1 1.1-.4 1.7-.6.2-.1.6-.4 1-.7-.2.4-.5.7-.7 1-.3.5-.2.7.4.8.9.2 1.7.1 2.4-.4s1.4-1.1 2.1-1.6l.6-.6c-.4 1.2-1.1 2.2-1.9 3.2.5 0 .9.1 1.3 0 1.3-.2 2.2-1 3-2 .3-.3.6-.7.9-1.1l-1.8 3.6c.3.2.6.2 1 0 1.1-.7 2.1-1.6 3-2.5.6-.6 1.3-1.3 2-1.9-1.1 1.8-2.2 3.5-3.8 4.9v.1c.3-.1.6 0 .8-.2.7-.4 1.5-.9 2.2-1.3.1-.1.3-.2.5-.3 0 .1-.1.2-.1.3-.4.6-.8 1.2-1.1 1.8-.1.1-.1.5-.1.5.3.1.6.3.9.2.4-.1.7-.3 1-.6 1.5-1.2 2.7-2.6 3.9-4l.3-.3c-1.2 2.3-2.7 4.4-4.4 6.3l.1.1c.2-.2.4-.3.6-.5.7.7 1.3.1 1.9-.2 1.4-.9 2.6-2.1 3.8-3.4.6-.6 1.2-1.3 1.8-2-.8 2.3-2.4 4.1-4.2 5.8 0 0 0 .1.1.1.4-.2.9-.3 1.3-.6 1.2-.6 2.2-1.5 3.1-2.5.8-.8 1.5-1.7 2.2-2.5l.3-.3c-1.1 2.7-2.6 5.1-4.9 7.1 1-.3 1.8-.8 2.5-1.3 1.5-1.2 2.8-2.7 4-4.2.4-.6.9-1.1 1.3-1.7-1.3 2.9-2.9 5.5-5.6 7.7.8.1 1.5.1 2.3-.1 1.9-.4 3.5-1.4 5-2.5 1-.7 2-1.5 3-2.4-.7 1.2-1.4 2.3-2.3 3.3s-1.8 1.9-3.1 2.6c.8.2 1.5.2 2.2 0 1.6-.4 2.9-1.2 4.1-2.1.3-.3.8-.8 1.4-1.3z" fill="url(#A)"/><linearGradient id="B" gradientUnits="userSpaceOnUse" x1=".8" y1="29.15" x2="72.398" y2="29.15"><stop offset="0" stop-color="#f3e1f4"/><stop offset=".065" stop-color="#e8d3ea"/><stop offset=".286" stop-color="#cab0cc"/><stop offset=".372" stop-color="#bfa4c1"/><stop offset=".669" stop-color="#a388a5"/><stop offset=".861" stop-color="#8f7491"/><stop offset="1" stop-color="#544156"/></linearGradient><path d="M67.3 23.9c.2 0 .3.1.4.2l2.1 1.2c.9.5 1.7 1.1 2.5 1.7-.5-.5-1-.9-1.5-1.3l-2.7-2.6c-.1-.3-.1-.5-.1-.8.2-.1.4-.2.6-.2.6 0 1.2.1 1.8.2l1.6.4a11.94 11.94 0 0 0-1.6-.8l-2.7-1.5c-.2-.1-.4-.3-.6-.5 0-.1.1-.1.1-.2 1.1 0 2.1.5 3.2.8-1.1-.8-2.3-1.6-3.8-1.8-.9-.1-1.6.2-2 1.1-.2.5-.6.9-.8 1.4.2-1 .3-2 .1-3 0-.2-.2-.3-.3-.4-2.6-1.4-5.4-2.7-8.2-3.6l-1.9-.6c0 .2.1.2.1.3.5 1.5.7 3.1.6 4.7-.3 4-2.2 7.2-5.4 9.6a18.09 18.09 0 0 1-6.4 3.1l.6-.6c.2-.2.4-.4.5-.6.1-.1.2-.2.2-.3l.1-.1.1-.1h0l.5-.6h0l1.7-1.9.1-.1c.2-.2.4-.5.6-.7s.3-.5.5-.7c.2-.3.3-.7.4-1 0-.1 0-.1.1-.2.1-.3.2-.7.2-1.1v-.7c0-.2 0-.5-.1-.7-.1-.5-.2-1-.4-1.4l-.3-.6c-.1-.1-.1-.2-.2-.4l-.1-.1c-.2-.3-.4-.5-.6-.8-.2-.2-.3-.4-.5-.5 0 0-.1 0-.1-.1-.1-.1-.2-.1-.2-.2-.2-.2-.5-.3-.8-.5l-.6-.3c-.1 0-.3-.1-.4-.1-.2 0-.3-.1-.5-.2-.2 0-.3-.1-.5-.1s-.3-.1-.5-.1h-1-.3c-.3 0-.5.1-.8.1-.4.1-.8.2-1.1.3s-.5.2-.7.4c-.2.1-.3.2-.5.3l-.1.1c-.2.1-.3.3-.5.4l-.9.9c-.3.2-.5.5-.8.8l-.6.6c-.4.5-.9 1-1.3 1.5l-.1.1c-.1.1 0 .1 0 .1.1.1.2.1.3.2.3.2.6.3.9.3.2 0 .4.1.7 0 .1 0 .2 0 .3-.1.2-.3.5-.5.7-.8.5-.6 1.1-1.2 1.6-1.8.2-.2.5-.5.8-.7.2-.2.5-.3.7-.4.4-.2.9-.3 1.4-.4h.4c.3 0 .5 0 .8.1.4.1.8.2 1.2.4.3.1.5.3.8.5l.2.2a1.38 1.38 0 0 0 .4.3c.2.2.3.4.4.6s.2.3.3.5.2.5.3.7c.2.5.2 1 .1 1.5v.2h0c0 .1 0 .3-.1.4-.1.2-.1.4-.2.6-.2.4-.4.7-.7 1-.1.1-.2.3-.4.4l-.1.1-.3.3c-.3.4-.7.8-1 1.1-.4.5-.9 1-1.3 1.5l-.6.6h0c-.2.2-.5.4-.7.6s-.5.3-.8.4c-.2.1-.4.1-.5.2-.3.1-.5.1-.8.1h-.7c-.3 0-.6-.1-1-.2h-.1c-.3-.1-.5-.2-.7-.3s-.3-.2-.5-.3l-.2-.2c-.2-.1-.3-.3-.5-.4-.2-.3-.5-.6-.6-.9 0-.1-.1-.1-.1-.2h0c-.3 0-.5-.1-.8-.2-.5-.1-1-.3-1.5-.5.1.3.1.7.2 1 0 .1.1.2.1.3.1.4.3.7.6 1.1.2.3.5.7.7 1l.1.1.4.4c-3.5-.7-6.6-2.4-9-5.1-2.1-2.3-3.2-5-3.4-8.1 0-.9.1-1.8.1-2.7h-.1c-2.3.9-4.4 2.1-6.5 3.4-.1.1-.2.1-.2.2-.9 1.6-1.2 3.3-.6 5 .7 1.9 2 3.2 3.6 4.3.9.6 2 1.1 3 1.7-.1 0-.2 0-.4-.1-1.7-.5-3.5-.7-5.3-.6-2.2.1-4.4.3-6.5.4-1.6.2-3.5.2-5.3-.3-.8-.2-1.5-.5-2.3-.7.5.4 1.1.8 1.7 1.1 1.6.8 3.4 1 5.2 1h5.9c1 0 1.9.2 2.9.4.6.1.7.4.5 1a.76.76 0 0 1-.2.4c-.7.9-1.4 1.7-2.1 2.6l-.3.3c.8-.5 1.6-1 2.3-1.6 1.1-.8 2.3-1.5 3.6-2 .4-.1.8-.2 1.1.1s.2.7.2 1.1v.2l-1.2 2.4c-.1.1-.1.2-.2.4.6-.5 1.1-1.1 1.6-1.6.8-.8 1.7-1.5 2.8-1.8.9-.2 1.7-.1 2.4.5.6.6.7.8.3 1.5-.5.8-1 1.6-1.6 2.4-.2.3-.5.7-.8 1 .5-.3.9-.7 1.3-1.1 1.1-.9 2.2-1.7 3.3-2.5.6-.4.9-.2 1 .5v.2c-.1 1-.2 2.1-.2 3.1a.76.76 0 0 1 .2-.4c.5-1 1-1.9 1.6-2.9.2-.3.4-.5.7-.7.2-.2.4-.1.4.2 0 .4 0 .7-.2 1.1L30.3 43c0 .1-.1.2-.1.3 1-1.5 1.8-3 2.8-4.5.8-1.3 1.7-2.6 2.7-3.9.5-.6.9-.6 1.4 0 .3.5.6 1.1.8 1.7.4 1.1.6 2.2 1 3.3 0-.5-.1-1-.1-1.4v-3.4a.55.55 0 0 1 .3-.5c.8-.6 2.2-.4 2.7.5.3.5.4 1 .5 1.6.3 1.7.1 3.5-.2 5.2-.1.9-.3 1.7-.5 2.6.3-.5.5-1 .6-1.6.6-1.7 1.1-3.4 1.3-5.1.1-1.1.2-2.2-.3-3.2 3.6 2.5 4.9 6 5 10.1.6-4-1.2-7.5-2.8-11 2.6.8 3.7 3.1 5.2 5-.3-.8-.7-1.5-1-2.3s-.5-1.6-.6-2.4c-.1-.7.3-1.1 1.1-1.1 1.6 0 2.7.9 3.6 2.1.8 1.2 1.3 2.6 1.6 4 .2.9.3 1.8.5 2.6h.1c0-.4.1-.8.1-1.3-.1-1.7-.6-3.2-1.2-4.7-.5-1.4-1.1-2.7-1.7-4.1.5-.3 1-.2 1.5 0 .6.4 1.3.8 1.8 1.2 1.7 1.5 3.1 3.2 4.4 5 .1.2.2.3.4.5 0-.2 0-.3-.1-.4-.5-.9-1.1-1.8-1.6-2.7-.8-1.5-1.5-3.1-2.3-4.7-.1-.3-.2-.8 0-1 .3-.3.8 0 1.1.2.7.5 1.4 1 2 1.6.3.3.6.6 1 .9l-1.4-2.3c-.1-.2-.2-.5-.3-.8 0-.1 0-.3.1-.4.1 0 .3 0 .4.1.4.3.8.5 1.1.8L66 34c.3.2.5.5.8.7-1.3-1.7-2.5-3.4-3.7-5.1-.3-.5-.5-1-.7-1.5-.2-.6.1-.9.7-.8.5.1.9.3 1.4.4.3.1.6.3.9.4-.6-.6-1.3-1-1.9-1.6-.4-.4-.8-.8-1.1-1.2-.2-.3-.1-.6.3-.6.4-.1.9-.1 1.3 0 1.1.3 2.2.7 3.2 1.1.8.3 1.5.7 2.2 1.1-.6-.7-1.3-1.3-1.9-1.9-.2-.2-.3-.5-.4-.7-.3-.4-.2-.5.2-.4zm-22.6 4.7h0c0 .1-.1.1-.1.1l.1-.1z" fill="url(#B)"/><linearGradient id="C" gradientUnits="userSpaceOnUse" x1="60.799" y1="56.388" x2="60.799" y2="63.995"><stop offset="0" stop-color="#f3e1f4"/><stop offset=".369" stop-color="#e8d3ea"/><stop offset=".676" stop-color="#cab0cc"/><stop offset="1" stop-color="#a388a5"/></linearGradient><path d="M64.6 63.1c0 .6-.3.9-.8.9H59c-1.3-.1-2-.8-2-2.1v-3.3c0-1.4.8-2.1 2.2-2.1H64h.5V58h-.8-4.4c-.5 0-.6.2-.6.6v3.2c0 .3.1.5.4.5h3.7c.1 0 .1 0 .2-.1V61h-3.5v-1.5c0-.1.2-.2.3-.2h3.9c.6 0 .9.3.9.9v2.9z" fill="url(#C)"/><linearGradient id="D" gradientUnits="userSpaceOnUse" x1="31.786" y1="56.382" x2="31.786" y2="63.954"><stop offset="0" stop-color="#f3e1f4"/><stop offset=".369" stop-color="#e8d3ea"/><stop offset=".676" stop-color="#cab0cc"/><stop offset="1" stop-color="#a388a5"/></linearGradient><path d="M35.6 57.2c0-.5-.3-.8-.8-.8h-3.1c-2 .1-3.4 1.3-3.6 3.3-.1 1.4 0 2.8 0 4.2 0 0 0 .1.1.1h1.5v-1.4c0-.3.1-.4.4-.4h3.6c.3 0 .4.1.4.4V64h1.6l-.1-6.8zm-1.7 3.3h-4.3c-.3-1.2.5-2.3 1.7-2.5h.7 1.9v2.5z" fill="url(#D)"/><linearGradient id="E" gradientUnits="userSpaceOnUse" x1="40.623" y1="56.384" x2="40.623" y2="63.995"><stop offset="0" stop-color="#f3e1f4"/><stop offset=".369" stop-color="#e8d3ea"/><stop offset=".676" stop-color="#cab0cc"/><stop offset="1" stop-color="#a388a5"/></linearGradient><path d="M44.4 59.2c-.1-1.7-1.4-2.8-3.1-2.8h-3.5c-.7 0-1 .3-1 1v2.8V63c0 .7.3 1 1 1h3.4c2-.1 3.2-1.3 3.2-3.3v-1.5zM42.8 61c-.1.7-.5 1.2-1.2 1.2-1 .1-2 0-3 0V58c.1 0 .2-.1.3-.1h2.5c.8 0 1.3.5 1.4 1.3V61z" fill="url(#E)"/><linearGradient id="F" gradientUnits="userSpaceOnUse" x1="23.025" y1="56.252" x2="23.025" y2="64.093"><stop offset="0" stop-color="#f3e1f4"/><stop offset=".369" stop-color="#e8d3ea"/><stop offset=".676" stop-color="#cab0cc"/><stop offset="1" stop-color="#a388a5"/></linearGradient><path d="M27.1 59.2c-.1-1.4-1-2.5-2.3-2.8-.6-.1-1.1-.1-1.7-.1H22c-1.5 0-2.8 1.1-3 2.6-.1.8-.1 1.6 0 2.4.1 1.5 1.2 2.6 2.7 2.8.8.1 1.7.1 2.5 0 1.8-.2 2.9-1.4 2.9-3.2v-1.7zm-1.6 1.7c0 .9-.5 1.4-1.4 1.5H23h0c-.4 0-.8 0-1.2-.1-.8-.1-1.2-.6-1.3-1.4v-1.7c.1-.9.6-1.4 1.5-1.4h2c.9 0 1.4.6 1.5 1.5v1.6z" fill="url(#F)"/><linearGradient id="G" gradientUnits="userSpaceOnUse" x1="52.076" y1="56.272" x2="52.076" y2="64.065"><stop offset="0" stop-color="#f3e1f4"/><stop offset=".369" stop-color="#e8d3ea"/><stop offset=".676" stop-color="#cab0cc"/><stop offset="1" stop-color="#a388a5"/></linearGradient><path d="M55.9 63c0 .4-.1.8-.5 1-.5.2-.8 0-1.1-.4l-3.9-4c-.1-.1-.2-.3-.3-.4-.1 0-.1 0-.2.1V64h-1.4c-.1 0-.3-.2-.3-.3v-6.6c0-.2.2-.6.5-.7.3-.2.7-.1 1 .2l4 4.2c.1.1.2.3.3.4.1 0 .1-.1.2-.1v-4.7h1.6v.5l.1 6.1z" fill="url(#G)"/><linearGradient id="H" gradientUnits="userSpaceOnUse" x1="15.102" y1="56.414" x2="15.102" y2="63.982"><stop offset="0" stop-color="#f3e1f4"/><stop offset=".369" stop-color="#e8d3ea"/><stop offset=".676" stop-color="#cab0cc"/><stop offset="1" stop-color="#a388a5"/></linearGradient><path d="M18.6 62.3V64h-.5-5.3c-.9 0-1.2-.3-1.2-1.2v-5.9-.5h1.6v.6 4.8c0 .4.1.5.5.5h4.2.7z" fill="url(#H)"/><linearGradient id="I" gradientUnits="userSpaceOnUse" x1="46.238" y1="56.416" x2="46.238" y2="63.992"><stop offset="0" stop-color="#f3e1f4"/><stop offset=".369" stop-color="#e8d3ea"/><stop offset=".676" stop-color="#cab0cc"/><stop offset="1" stop-color="#a388a5"/></linearGradient><path d="M47 63.5c0 .4-.1.5-.5.5h-1.1v-7.6H47v.5 6.6z" fill="url(#I)"/><linearGradient id="J" gradientUnits="userSpaceOnUse" x1="66.105" y1="62.362" x2="66.105" y2="63.937"><stop offset="0" stop-color="#f3e1f4"/><stop offset=".369" stop-color="#e8d3ea"/><stop offset=".676" stop-color="#cab0cc"/><stop offset="1" stop-color="#a388a5"/></linearGradient><path d="M66.9 63.2c0 .4-.4.8-.8.7-.4 0-.8-.4-.8-.8s.4-.8.8-.7c.5 0 .8.4.8.8z" fill="url(#J)"/><linearGradient id="K" gradientUnits="userSpaceOnUse" x1="68.251" y1="62.361" x2="68.251" y2="63.938"><stop offset="0" stop-color="#f3e1f4"/><stop offset=".369" stop-color="#e8d3ea"/><stop offset=".676" stop-color="#cab0cc"/><stop offset="1" stop-color="#a388a5"/></linearGradient><path d="M69 63.2c0 .4-.4.8-.8.8s-.8-.4-.8-.8.4-.8.8-.8c.5 0 .9.3.8.8z" fill="url(#K)"/><linearGradient id="L" gradientUnits="userSpaceOnUse" x1="70.371" y1="62.361" x2="70.371" y2="63.938"><stop offset="0" stop-color="#f3e1f4"/><stop offset=".369" stop-color="#e8d3ea"/><stop offset=".676" stop-color="#cab0cc"/><stop offset="1" stop-color="#a388a5"/></linearGradient><path d="M71.2 63.1c0 .4-.3.8-.8.8s-.8-.3-.8-.8c0-.4.3-.8.8-.8.4.1.8.4.8.8z" fill="url(#L)"/></svg>
