<?xml version="1.0" standalone="no"?>
<!DOCTYPE svg PUBLIC "-//W3C//DTD SVG 20010904//EN"
 "http://www.w3.org/TR/2001/REC-SVG-20010904/DTD/svg10.dtd">
<svg version="1.0" xmlns="http://www.w3.org/2000/svg"
 width="329.000000pt" height="329.000000pt" viewBox="0 0 329.000000 329.000000"
 preserveAspectRatio="xMidYMid meet">

<g transform="translate(0.000000,329.000000) scale(0.100000,-0.100000)"
fill="#000000" stroke="none">
<path d="M310 2875 l0 -115 115 0 115 0 0 115 0 115 -115 0 -115 0 0 -115z
m195 0 l0 -80 -82 -3 -83 -3 0 86 0 86 83 -3 82 -3 0 -80z"/>
<path d="M372 2873 l3 -48 48 -3 47 -3 0 50 0 51 -51 0 -50 0 3 -47z"/>
<path d="M640 2975 c0 -8 7 -15 15 -15 8 0 15 -9 15 -20 0 -11 -7 -20 -15 -20
-8 0 -15 -7 -15 -15 0 -10 -11 -15 -35 -15 -32 0 -35 -2 -35 -30 0 -18 6 -33
15 -36 8 -4 15 -12 15 -20 0 -8 -7 -14 -15 -14 -8 0 -15 -7 -15 -15 0 -8 7
-15 15 -15 8 0 15 -6 15 -14 0 -8 9 -18 20 -21 11 -3 20 -13 20 -21 0 -8 7
-14 15 -14 8 0 15 -7 15 -15 0 -8 7 -15 15 -15 10 0 15 -11 15 -35 0 -33 2
-35 35 -35 24 0 35 5 35 15 0 8 7 15 15 15 8 0 15 -7 15 -15 0 -8 7 -15 15
-15 8 0 15 -7 15 -15 0 -8 9 -15 20 -15 11 0 20 -7 20 -15 0 -8 7 -15 15 -15
11 0 15 12 15 45 0 32 4 45 14 45 8 0 16 -7 20 -15 3 -8 10 -15 16 -15 5 0 10
7 10 15 0 8 7 15 15 15 23 0 55 -37 55 -65 0 -16 6 -25 15 -25 8 0 15 6 15 14
0 7 9 16 20 19 11 3 20 10 20 15 0 5 -9 12 -20 15 -11 3 -20 12 -20 21 0 11
-9 16 -30 16 -20 0 -30 5 -30 15 0 8 -7 15 -15 15 -9 0 -18 -7 -21 -15 -4 -8
-12 -15 -20 -15 -8 0 -14 7 -14 15 0 10 -10 15 -30 15 -27 0 -30 3 -30 30 0
20 5 30 15 30 8 0 15 -7 15 -15 0 -11 12 -15 50 -15 38 0 50 -4 50 -15 0 -12
16 -15 80 -15 64 0 80 3 80 15 0 8 7 15 15 15 8 0 15 -7 15 -15 0 -8 -7 -15
-15 -15 -8 0 -15 -5 -15 -11 0 -7 -8 -18 -17 -25 -17 -13 -17 -15 0 -28 9 -7
17 -18 17 -25 0 -6 7 -11 15 -11 10 0 15 -10 15 -30 0 -20 -5 -30 -15 -30 -10
0 -15 10 -15 30 0 20 -5 30 -15 30 -8 0 -15 -7 -15 -15 0 -8 -7 -15 -15 -15
-8 0 -15 -7 -15 -15 0 -9 7 -18 15 -21 20 -8 19 -34 -1 -34 -11 0 -14 -8 -12
-32 3 -29 7 -33 31 -33 29 1 37 -19 12 -29 -9 -3 -15 -18 -15 -36 0 -20 -5
-30 -15 -30 -8 0 -15 7 -15 15 0 8 -9 15 -20 15 -11 0 -20 7 -20 15 0 9 -7 18
-15 21 -10 4 -15 20 -15 50 0 32 -4 44 -15 44 -8 0 -15 7 -15 16 0 9 -9 18
-20 21 -11 3 -20 12 -20 19 0 9 -11 14 -30 14 -28 0 -30 -3 -30 -35 0 -39 24
-49 33 -14 7 28 27 15 27 -18 0 -16 7 -27 20 -30 11 -3 20 -11 20 -18 0 -8 -9
-17 -20 -20 -11 -3 -20 -11 -20 -16 0 -5 -7 -9 -15 -9 -8 0 -15 7 -15 15 0 8
-7 15 -15 15 -8 0 -15 7 -15 15 0 10 -11 15 -35 15 -39 0 -49 -24 -15 -35 11
-3 20 -10 20 -15 0 -5 -9 -12 -20 -15 -14 -4 -20 -15 -20 -36 0 -22 5 -29 20
-29 15 0 20 7 20 29 0 16 6 31 15 35 10 4 15 -1 15 -14 0 -11 7 -20 15 -20 8
0 15 -7 15 -15 0 -8 -7 -15 -15 -15 -8 0 -15 -7 -15 -15 0 -9 7 -18 15 -21 28
-11 17 -34 -16 -34 -28 0 -30 -2 -27 -32 3 -35 28 -52 28 -19 0 17 6 21 30 21
29 0 30 -2 30 -46 0 -37 4 -47 20 -51 14 -4 20 -14 20 -33 0 -20 -6 -31 -20
-35 -11 -3 -20 -13 -20 -21 0 -8 -7 -14 -15 -14 -12 0 -15 15 -15 71 0 52 -3
70 -12 67 -7 -3 -14 -25 -16 -51 -2 -33 -7 -47 -18 -47 -9 0 -14 11 -14 30 0
28 -3 30 -35 30 l-35 0 0 50 c0 38 -4 50 -15 50 -8 0 -15 7 -15 15 0 10 10 15
30 15 23 0 30 4 30 20 0 11 -7 20 -15 20 -10 0 -15 10 -15 30 0 20 -5 30 -15
30 -8 0 -15 -7 -15 -15 0 -8 -6 -15 -14 -15 -8 0 -16 7 -20 15 -3 9 -18 15
-36 15 -27 0 -30 3 -30 30 0 20 5 30 15 30 8 0 15 9 15 20 0 16 7 20 34 20 32
0 35 -3 38 -32 4 -46 28 -49 28 -4 0 25 4 36 15 36 8 0 15 6 15 14 0 7 9 16
20 19 15 4 20 14 20 36 0 24 -4 31 -20 31 -11 0 -20 7 -20 15 0 8 -7 15 -15
15 -11 0 -15 -12 -15 -50 0 -49 -1 -50 -30 -50 -19 0 -30 5 -30 14 0 8 -9 18
-20 21 -11 3 -20 13 -20 21 0 8 -7 14 -15 14 -8 0 -15 7 -15 15 0 8 7 15 15
15 8 0 15 7 15 15 0 10 -10 15 -30 15 -29 0 -30 -2 -30 -45 0 -45 0 -45 -35
-45 -35 0 -47 16 -20 26 10 4 15 20 15 50 0 44 0 44 35 44 28 0 35 4 35 20 0
16 -7 20 -35 20 -24 0 -35 5 -35 15 0 8 -7 15 -15 15 -8 0 -15 9 -15 20 0 15
-7 20 -27 20 -43 0 -73 -11 -73 -26 0 -23 -87 -19 -99 5 -6 10 -20 18 -33 17
-20 -1 -23 -7 -26 -49 -2 -35 1 -49 12 -53 20 -8 21 -34 1 -34 -8 0 -15 -7
-15 -15 0 -10 10 -15 30 -15 20 0 30 5 30 15 0 8 9 15 20 15 11 0 20 -7 20
-15 0 -8 7 -15 15 -15 8 0 15 -7 15 -15 0 -12 -14 -15 -65 -15 l-65 0 0 -80
c0 -62 3 -82 15 -86 8 -4 15 -12 15 -20 0 -8 -7 -14 -15 -14 -8 0 -15 -7 -15
-15 0 -8 7 -15 15 -15 8 0 15 7 15 15 0 10 11 15 35 15 24 0 35 -5 35 -15 0
-10 10 -15 30 -15 20 0 30 5 30 15 0 8 -7 15 -15 15 -10 0 -15 11 -15 35 0 24
-5 35 -15 35 -8 0 -15 7 -15 15 0 8 -9 15 -20 15 -11 0 -20 7 -20 15 0 8 -7
15 -15 15 -8 0 -15 7 -15 15 0 10 11 15 35 15 24 0 35 -5 35 -15 0 -8 7 -15
15 -15 8 0 15 -7 15 -15 0 -8 7 -15 15 -15 8 0 15 -6 15 -14 0 -8 9 -17 19
-21 11 -3 22 -12 25 -20 8 -21 86 -21 86 0 0 9 -7 18 -15 21 -9 4 -15 19 -15
35 0 26 3 29 35 29 24 0 35 -5 35 -15 0 -8 7 -15 15 -15 8 0 15 -6 15 -14 0
-8 -7 -16 -15 -20 -9 -3 -15 -18 -15 -36 0 -28 -3 -30 -35 -30 -24 0 -35 -5
-35 -15 0 -8 -6 -15 -14 -15 -7 0 -16 -9 -19 -21 -3 -12 -10 -18 -16 -14 -16
9 -13 35 4 35 8 0 15 7 15 15 0 8 -7 15 -15 15 -8 0 -15 -7 -15 -15 0 -8 -9
-15 -20 -15 -11 0 -20 -6 -20 -14 0 -7 -12 -16 -26 -19 -20 -3 -28 0 -31 14
-6 22 -29 25 -40 5 -4 -8 -19 -16 -33 -18 -14 -1 -26 -11 -28 -20 -3 -14 3
-18 27 -18 21 0 31 5 31 15 0 8 9 15 20 15 11 0 20 -7 20 -15 0 -10 10 -15 30
-15 20 0 30 5 30 15 0 8 9 15 20 15 11 0 20 -7 20 -15 0 -8 7 -15 15 -15 8 0
15 -7 15 -15 0 -8 -7 -15 -15 -15 -8 0 -15 7 -15 15 0 8 -9 15 -20 15 -11 0
-20 -7 -20 -15 0 -8 -7 -15 -15 -15 -8 0 -15 -7 -15 -15 0 -8 -7 -15 -15 -15
-8 0 -15 7 -15 15 0 8 -6 15 -14 15 -18 0 -33 -23 -19 -27 18 -6 63 -51 63
-63 0 -5 -7 -10 -15 -10 -8 0 -15 -7 -15 -15 0 -8 7 -15 15 -15 11 0 15 -12
15 -50 0 -38 -4 -50 -15 -50 -10 0 -15 10 -15 31 0 22 -5 32 -20 36 -11 3 -20
12 -20 19 0 8 -7 14 -15 14 -8 0 -15 7 -15 15 0 8 7 15 15 15 8 0 15 9 15 21
0 16 -5 20 -27 17 -23 -2 -29 -8 -31 -35 -2 -25 1 -33 12 -33 20 0 21 -26 1
-34 -19 -7 -19 -36 0 -36 8 0 15 7 15 15 0 8 7 15 15 15 9 0 15 -10 15 -26 0
-17 6 -28 20 -31 11 -3 20 -12 20 -19 0 -8 7 -14 15 -14 8 0 15 7 15 15 0 8 7
15 15 15 10 0 15 10 15 30 l0 30 61 0 c47 0 65 -4 75 -17 10 -14 15 -15 24 -6
15 14 5 33 -16 33 -29 0 -7 25 24 28 20 2 32 9 32 18 0 10 13 14 50 14 38 0
50 -4 50 -15 0 -10 10 -15 30 -15 19 0 30 -5 30 -14 0 -8 9 -18 20 -21 11 -3
20 -13 20 -21 0 -9 11 -14 30 -14 20 0 30 -5 30 -15 0 -12 16 -15 85 -15 66 0
85 3 85 14 0 7 -9 16 -20 19 -11 3 -20 10 -20 16 0 6 9 11 20 11 11 0 20 -7
20 -15 0 -8 7 -15 15 -15 8 0 15 -7 15 -15 0 -8 -7 -15 -15 -15 -8 0 -15 -7
-15 -15 0 -8 7 -15 15 -15 8 0 15 7 15 15 0 8 7 15 15 15 10 0 15 10 15 30 0
20 5 30 15 30 12 0 15 -13 15 -60 0 -47 -3 -60 -15 -60 -8 0 -15 7 -15 15 0 8
-7 15 -15 15 -8 0 -15 -7 -15 -15 0 -8 -7 -15 -15 -15 -8 0 -15 7 -15 16 0 9
-7 14 -17 12 -25 -5 -27 -25 -4 -33 27 -8 27 -25 1 -32 -17 -5 -20 -14 -20
-68 0 -54 3 -63 20 -68 11 -3 20 -10 20 -16 0 -6 -9 -11 -20 -11 -11 0 -20 7
-20 15 0 8 -7 15 -15 15 -8 0 -15 -7 -15 -15 0 -8 -7 -15 -15 -15 -8 0 -15 7
-15 15 0 10 -11 15 -35 15 -24 0 -35 5 -35 15 0 8 -7 15 -15 15 -8 0 -15 7
-15 15 0 8 -7 15 -15 15 -8 0 -15 9 -15 20 0 11 7 20 15 20 8 0 15 7 15 15 0
8 -7 15 -15 15 -8 0 -15 7 -15 16 0 9 -9 18 -20 21 -11 3 -20 12 -20 19 0 8
-7 14 -15 14 -8 0 -15 7 -15 15 0 8 7 15 15 15 8 0 15 7 15 15 0 10 -10 15
-30 15 l-30 0 0 -65 c0 -51 -3 -65 -15 -65 -8 0 -15 -7 -15 -15 0 -10 -11 -15
-35 -15 -24 0 -35 5 -35 15 0 8 7 15 15 15 8 0 15 6 15 14 0 7 9 16 20 19 16
4 20 14 20 51 0 35 4 46 16 46 31 0 10 35 -24 38 -20 2 -32 9 -32 18 0 8 -7
14 -15 14 -10 0 -15 -10 -15 -30 0 -18 6 -33 15 -36 9 -4 15 -19 15 -35 0 -19
-5 -29 -15 -29 -8 0 -15 -7 -15 -15 0 -8 -7 -15 -15 -15 -8 0 -15 7 -15 15 0
8 7 15 15 15 8 0 15 7 15 15 0 8 -7 15 -15 15 -8 0 -15 -7 -15 -15 0 -8 -9
-15 -20 -15 -11 0 -20 7 -20 15 0 8 -7 15 -15 15 -8 0 -15 7 -15 15 0 10 -10
15 -30 15 -20 0 -30 -5 -30 -15 0 -10 10 -15 30 -15 20 0 30 -5 30 -15 0 -8 7
-15 15 -15 8 0 15 -7 15 -16 0 -9 9 -18 20 -21 17 -4 20 -14 20 -54 0 -42 -3
-49 -20 -49 -11 0 -20 -7 -20 -15 0 -8 9 -15 20 -15 11 0 20 7 20 15 0 10 10
15 30 15 27 0 30 -3 30 -31 0 -24 4 -30 18 -27 13 2 18 15 20 51 2 33 7 47 18
47 7 0 14 7 14 15 0 8 7 15 15 15 8 0 15 -7 15 -15 0 -8 7 -15 15 -15 8 0 15
7 15 15 0 8 9 15 20 15 11 0 20 -7 20 -15 0 -8 -9 -15 -20 -15 -13 0 -20 -7
-20 -20 0 -13 7 -20 20 -20 17 0 20 -7 20 -44 0 -36 -4 -46 -20 -51 -11 -3
-20 -13 -20 -21 0 -8 -7 -14 -15 -14 -8 0 -15 -7 -15 -15 0 -10 11 -15 35 -15
24 0 35 -5 35 -15 0 -8 7 -15 15 -15 8 0 15 -9 15 -20 0 -11 7 -20 15 -20 8 0
15 -7 15 -15 0 -19 -19 -19 -26 0 -11 27 -34 17 -34 -15 0 -29 2 -30 45 -30
33 0 45 4 45 15 0 8 9 15 20 15 11 0 20 -7 20 -15 0 -10 10 -15 30 -15 19 0
30 5 30 14 0 7 9 16 20 19 16 4 20 14 20 50 0 36 -4 46 -20 50 -11 3 -20 10
-20 16 0 6 9 11 20 11 11 0 20 -7 20 -15 0 -8 7 -15 15 -15 8 0 15 -7 15 -15
0 -8 6 -15 14 -15 7 0 16 -9 19 -20 3 -11 10 -20 16 -20 6 0 11 9 11 20 0 13
7 20 20 20 13 0 20 -7 20 -20 0 -11 6 -20 14 -20 8 0 16 -7 20 -15 3 -8 10
-15 16 -15 5 0 10 7 10 15 0 8 -7 15 -15 15 -8 0 -15 9 -15 20 0 16 7 20 35
20 24 0 35 5 35 15 0 8 7 15 15 15 8 0 15 7 15 15 0 11 12 15 50 15 38 0 50
-4 50 -15 0 -8 7 -15 15 -15 10 0 15 -10 15 -30 0 -18 6 -33 15 -36 8 -4 15
-12 15 -20 0 -8 -7 -14 -15 -14 -8 0 -15 -7 -15 -15 0 -8 7 -15 15 -15 8 0 15
6 15 14 0 7 9 16 20 19 29 8 29 86 0 94 -11 3 -20 12 -20 19 0 9 -11 14 -29
14 -20 0 -30 6 -34 20 -4 15 -14 20 -36 20 -21 0 -31 5 -31 15 0 8 -7 15 -15
15 -8 0 -15 7 -15 15 0 8 -7 15 -15 15 -8 0 -15 7 -15 15 0 8 -9 15 -20 15
-11 0 -20 -7 -20 -15 0 -8 -7 -15 -15 -15 -8 0 -15 7 -15 15 0 8 -7 15 -15 15
-10 0 -15 11 -15 35 0 24 5 35 15 35 8 0 15 -7 15 -15 0 -8 7 -15 15 -15 8 0
15 7 15 15 0 10 11 15 35 15 33 0 35 2 35 35 0 33 -2 35 -35 35 -24 0 -35 5
-35 15 0 8 -7 15 -15 15 -8 0 -15 -7 -15 -15 0 -8 7 -15 15 -15 10 0 15 -11
15 -35 0 -24 -5 -35 -15 -35 -8 0 -15 7 -15 15 0 9 -7 18 -15 21 -9 4 -15 19
-15 35 0 19 5 29 15 29 8 0 15 7 15 15 0 8 7 15 15 15 8 0 15 -7 15 -15 0 -10
11 -15 35 -15 24 0 35 -5 35 -15 0 -8 7 -15 15 -15 8 0 15 7 15 15 0 8 7 15
15 15 10 0 15 10 15 29 0 33 13 39 68 33 27 -4 32 -8 32 -32 0 -19 6 -29 20
-33 33 -8 23 -27 -15 -27 -24 0 -35 -5 -35 -15 0 -11 -12 -15 -46 -15 -37 0
-47 -4 -51 -20 -3 -11 -12 -20 -19 -20 -10 0 -14 -14 -14 -50 0 -38 4 -50 15
-50 10 0 15 11 15 35 l0 35 49 0 c40 0 50 -3 54 -20 7 -26 27 -26 27 0 0 11 7
20 15 20 9 0 18 7 21 15 5 12 24 15 85 15 64 0 79 3 79 15 0 8 7 15 15 15 8 0
15 -7 15 -15 0 -8 7 -15 15 -15 9 0 18 -7 21 -15 4 -9 19 -15 35 -15 22 0 29
-5 29 -20 0 -11 -7 -20 -15 -20 -8 0 -15 -7 -15 -15 0 -8 -7 -15 -15 -15 -10
0 -15 11 -15 35 0 25 -4 35 -16 35 -9 0 -18 -9 -21 -20 -4 -16 -14 -20 -50
-20 -36 0 -46 4 -50 20 -9 35 -33 24 -33 -15 0 -24 -5 -35 -15 -35 -8 0 -15
-7 -15 -15 0 -8 7 -15 15 -15 10 0 15 -10 15 -30 0 -18 6 -33 15 -36 9 -4 15
-19 15 -35 0 -19 -5 -29 -15 -29 -8 0 -15 -9 -15 -20 0 -11 -7 -20 -15 -20
-10 0 -15 -10 -15 -30 0 -20 -5 -30 -15 -30 -10 0 -15 -11 -15 -35 0 -32 3
-35 29 -35 20 0 30 6 34 20 7 27 70 30 65 3 -2 -12 -14 -19 -36 -21 -20 -2
-32 -9 -32 -18 0 -9 -11 -14 -30 -14 -20 0 -30 -5 -30 -15 0 -8 -9 -15 -20
-15 -11 0 -20 7 -20 15 0 8 -7 15 -15 15 -8 0 -15 -7 -15 -15 0 -8 -7 -15 -15
-15 -8 0 -15 7 -15 15 0 8 -9 15 -20 15 -11 0 -20 -7 -20 -15 0 -8 9 -15 20
-15 12 0 20 -7 20 -16 0 -9 -9 -18 -20 -21 -11 -3 -20 -12 -20 -20 0 -17 -22
-13 -28 5 -2 7 3 12 12 12 9 0 16 8 16 20 0 11 -7 20 -15 20 -8 0 -15 7 -15
15 0 8 7 15 15 15 8 0 15 6 15 14 0 8 -7 16 -15 20 -9 3 -15 18 -15 36 0 20
-5 30 -15 30 -11 0 -15 12 -15 50 0 38 -4 50 -15 50 -12 0 -15 -14 -15 -65 0
-51 3 -65 15 -65 8 0 15 -9 15 -20 0 -11 -6 -20 -14 -20 -8 0 -16 -7 -20 -15
-8 -21 -96 -21 -96 0 0 8 -9 15 -20 15 -11 0 -20 -7 -20 -15 0 -12 -14 -15
-65 -15 -51 0 -65 -3 -65 -15 0 -8 -7 -15 -15 -15 -10 0 -15 10 -15 30 l0 30
80 0 80 0 0 31 c0 22 5 32 20 36 35 9 24 33 -15 33 -32 0 -35 -2 -35 -30 0
-20 -5 -30 -15 -30 -8 0 -15 7 -15 15 0 10 -11 15 -35 15 -24 0 -35 -5 -35
-15 0 -10 -10 -15 -30 -15 l-30 0 0 -81 c0 -72 -2 -81 -20 -86 -28 -7 -28 -59
0 -66 15 -4 20 -14 20 -36 0 -21 5 -31 15 -31 8 0 15 6 15 14 0 9 12 16 32 18
38 4 55 38 19 38 -12 0 -21 6 -21 15 0 8 -7 15 -15 15 -10 0 -15 10 -15 30 0
32 23 42 34 15 3 -8 12 -15 21 -15 10 0 15 -10 15 -30 0 -20 5 -30 15 -30 8 0
15 -7 15 -15 0 -9 7 -18 15 -21 9 -4 15 -19 15 -35 0 -26 3 -29 35 -29 24 0
35 5 35 15 0 8 7 15 15 15 8 0 15 7 15 15 0 8 -7 15 -15 15 -8 0 -15 9 -15 20
0 11 7 20 15 20 10 0 15 10 15 30 0 20 5 30 15 30 8 0 15 6 15 14 0 8 -7 16
-15 20 -19 7 -19 36 0 36 8 0 15 -9 15 -20 0 -12 7 -20 16 -20 9 0 18 9 21 20
3 11 12 20 19 20 10 0 14 -14 14 -50 0 -38 -4 -50 -15 -50 -8 0 -15 7 -15 15
0 8 -9 15 -20 15 -16 0 -20 -7 -20 -30 0 -20 -5 -30 -15 -30 -8 0 -15 -9 -15
-20 0 -11 5 -20 11 -20 7 0 17 -7 24 -17 16 -22 35 -8 35 28 0 19 5 29 15 29
8 0 15 -7 15 -15 0 -9 7 -18 15 -21 8 -4 15 -12 15 -20 0 -8 -7 -14 -15 -14
-8 0 -15 -7 -15 -15 0 -8 -6 -15 -14 -15 -7 0 -16 -9 -19 -20 -5 -18 -14 -20
-82 -20 -68 0 -77 2 -82 20 -3 11 -12 20 -19 20 -8 0 -14 7 -14 15 0 10 -11
15 -35 15 -24 0 -35 -5 -35 -15 0 -10 -10 -15 -29 -15 -21 0 -30 -6 -34 -21
-8 -31 -31 -18 -35 19 -2 20 -9 32 -18 32 -8 0 -14 7 -14 15 0 8 7 15 15 15 8
0 15 9 15 20 0 11 -7 20 -15 20 -10 0 -15 10 -15 30 0 20 -5 30 -15 30 -8 0
-15 7 -15 15 0 8 7 15 15 15 8 0 15 9 15 20 0 11 7 20 15 20 11 0 15 12 15 46
0 37 4 47 20 51 11 3 20 12 20 19 0 8 -9 14 -20 14 -11 0 -20 -6 -20 -14 0 -9
-12 -16 -27 -18 -23 -2 -29 -8 -31 -35 -2 -25 1 -33 12 -33 9 0 16 -7 16 -15
0 -8 -7 -15 -15 -15 -8 0 -15 -9 -15 -20 0 -11 -7 -20 -15 -20 -8 0 -15 9 -15
20 0 11 7 20 15 20 8 0 15 7 15 15 0 8 -6 15 -14 15 -9 0 -16 12 -18 33 -3 28
-6 32 -33 32 -29 0 -30 -2 -33 -48 -2 -33 -7 -47 -18 -47 -7 0 -14 7 -14 15 0
8 -7 15 -15 15 -8 0 -15 -7 -15 -15 0 -8 -9 -15 -20 -15 -13 0 -20 -7 -20 -20
0 -11 -7 -20 -15 -20 -19 0 -19 -19 0 -26 8 -4 15 -12 15 -20 0 -9 12 -14 35
-14 24 0 35 -5 35 -15 0 -12 14 -15 65 -15 58 0 65 -2 65 -20 0 -16 -7 -20
-35 -20 -24 0 -35 -5 -35 -15 0 -8 -7 -15 -15 -15 -8 0 -15 6 -15 14 0 8 -7
16 -15 20 -8 3 -15 12 -15 21 0 11 -12 15 -50 15 -38 0 -50 4 -50 15 0 8 -7
15 -15 15 -8 0 -15 6 -15 14 0 7 -9 16 -20 19 -26 7 -26 23 0 30 11 3 20 10
20 17 0 7 -9 14 -20 17 -11 3 -20 12 -20 19 0 8 -7 14 -15 14 -10 0 -15 11
-15 35 0 32 -2 35 -30 35 -20 0 -30 5 -30 15 0 8 7 15 15 15 8 0 15 7 15 15 0
8 -7 15 -15 15 -8 0 -15 -7 -15 -15 0 -10 -11 -15 -35 -15 -33 0 -35 -2 -35
-35 0 -39 24 -50 33 -15 3 11 12 20 21 20 9 0 16 -8 16 -20 0 -11 7 -20 15
-20 8 0 15 -7 15 -15 0 -11 -12 -15 -50 -15 -38 0 -50 4 -50 15 0 19 -26 19
-34 0 -7 -20 -66 -20 -66 0 0 8 -7 15 -15 15 -8 0 -15 -7 -15 -15 0 -8 7 -15
15 -15 8 0 15 -7 15 -15 0 -8 -7 -15 -15 -15 -8 0 -15 -9 -15 -20 0 -16 7 -20
30 -20 27 0 30 -3 30 -30 0 -20 -5 -30 -15 -30 -8 0 -15 7 -15 15 0 8 -7 15
-15 15 -11 0 -15 -12 -15 -50 0 -48 1 -50 29 -50 16 0 31 -6 35 -15 3 -8 13
-15 21 -15 12 0 15 -8 13 -32 -4 -37 -27 -50 -35 -19 -3 12 -12 21 -19 21 -8
0 -14 7 -14 15 0 8 -7 15 -15 15 -11 0 -15 -12 -15 -50 0 -38 4 -50 15 -50 8
0 15 -7 15 -15 0 -8 7 -15 15 -15 10 0 15 -11 15 -35 0 -24 -5 -35 -15 -35 -8
0 -15 9 -15 20 0 11 -7 20 -15 20 -11 0 -15 -12 -15 -50 0 -38 4 -50 15 -50 8
0 15 7 15 15 0 10 10 15 30 15 18 0 33 6 36 15 8 19 34 19 34 0 0 -8 7 -15 15
-15 8 0 15 -7 15 -15 0 -11 12 -15 50 -15 l50 0 0 -50 c0 -49 -1 -50 -30 -50
-20 0 -30 -5 -30 -15 0 -8 -9 -15 -20 -15 -13 0 -20 -7 -20 -20 0 -11 -7 -20
-15 -20 -8 0 -15 9 -15 20 0 11 7 20 15 20 8 0 15 7 15 15 0 8 -7 15 -15 15
-8 0 -15 7 -15 15 0 11 12 15 51 15 43 0 50 3 47 18 -2 9 -12 18 -23 18 -11 1
-26 2 -32 3 -7 1 -13 8 -13 16 0 22 -58 20 -62 -2 -2 -12 -14 -17 -48 -17 -34
-1 -45 -5 -48 -19 -2 -10 3 -17 12 -17 9 0 16 -7 16 -15 0 -8 -7 -15 -15 -15
-12 0 -15 -14 -15 -65 0 -51 3 -65 15 -65 8 0 15 7 15 15 0 8 7 15 15 15 8 0
15 -7 15 -15 0 -8 -7 -15 -15 -15 -11 0 -15 -12 -15 -50 l0 -50 50 0 c37 0 50
4 50 14 0 9 -12 16 -32 18 -46 4 -49 28 -4 28 29 0 36 4 36 20 0 11 -7 20 -15
20 -8 0 -15 7 -15 15 0 10 10 15 30 15 20 0 30 5 30 15 0 8 9 15 20 15 11 0
20 -7 20 -15 0 -8 7 -15 15 -15 8 0 15 7 15 15 0 8 -7 15 -15 15 -8 0 -15 9
-15 20 0 16 7 20 30 20 28 0 30 -3 30 -35 0 -24 -5 -35 -15 -35 -8 0 -15 -7
-15 -15 0 -8 -7 -15 -15 -15 -8 0 -15 -9 -15 -20 0 -11 7 -20 15 -20 8 0 15
-7 15 -15 0 -8 -7 -15 -15 -15 -8 0 -15 7 -15 15 0 8 -9 15 -20 15 -11 0 -20
-5 -20 -11 0 -6 9 -13 20 -16 11 -3 20 -12 20 -19 0 -8 7 -14 15 -14 8 0 15 7
15 15 0 12 14 15 65 15 51 0 65 3 65 15 0 8 7 15 15 15 11 0 15 -12 15 -45 0
-43 -1 -45 -30 -45 -20 0 -30 5 -30 15 0 10 -11 15 -35 15 l-35 0 0 -50 c0
-38 4 -50 15 -50 8 0 15 7 15 15 0 10 11 15 35 15 32 0 35 -2 35 -30 0 -20 -5
-30 -15 -30 -8 0 -15 -6 -15 -14 0 -7 -9 -16 -20 -19 -26 -7 -26 -37 0 -37 13
0 20 7 20 20 0 11 7 20 15 20 8 0 15 -9 15 -20 0 -11 -7 -20 -15 -20 -8 0 -15
-7 -15 -15 0 -8 7 -15 15 -15 8 0 15 -7 15 -15 0 -8 7 -15 15 -15 10 0 15 10
15 30 0 28 3 30 35 30 28 0 35 4 35 20 0 11 -6 20 -14 20 -8 0 -16 7 -20 15
-3 8 -12 15 -21 15 -24 0 -20 56 5 63 16 4 20 14 20 51 0 44 1 46 30 46 20 0
30 -5 30 -15 0 -8 6 -15 14 -15 9 0 16 -12 18 -32 3 -29 7 -33 36 -36 46 -5
43 -32 -3 -32 -24 0 -35 -5 -35 -15 0 -10 -10 -15 -30 -15 -20 0 -30 -5 -30
-15 0 -8 7 -15 15 -15 11 0 15 -12 15 -50 0 -38 4 -50 15 -50 10 0 15 10 15
30 0 23 4 30 20 30 11 0 20 -7 20 -15 0 -10 10 -15 30 -15 20 0 30 -5 30 -15
0 -11 12 -15 50 -15 38 0 50 4 50 15 0 8 7 15 15 15 10 0 15 11 15 35 0 24 -5
35 -15 35 -8 0 -15 -9 -15 -20 0 -11 -7 -20 -15 -20 -8 0 -15 -7 -15 -15 0
-10 -11 -15 -35 -15 -24 0 -35 5 -35 15 0 10 11 15 35 15 25 0 35 4 35 15 0 9
7 18 15 21 8 4 15 12 15 20 0 8 7 14 15 14 10 0 15 10 15 30 0 23 4 30 20 30
16 0 20 -7 20 -30 0 -20 5 -30 15 -30 19 0 19 -26 0 -34 -9 -3 -15 -18 -15
-36 0 -20 5 -30 15 -30 8 0 15 -7 15 -15 0 -10 10 -15 30 -15 20 0 30 5 30 15
0 10 11 15 35 15 24 0 35 -5 35 -15 0 -8 7 -15 15 -15 8 0 15 7 15 15 0 8 9
15 20 15 11 0 20 -7 20 -15 0 -8 7 -15 15 -15 10 0 15 10 15 30 0 20 5 30 15
30 8 0 15 9 15 20 0 11 7 20 15 20 8 0 15 7 15 15 0 8 9 15 20 15 11 0 20 -7
20 -15 0 -10 10 -15 30 -15 23 0 30 -4 30 -20 0 -13 7 -20 20 -20 11 0 20 -7
20 -15 0 -8 -9 -15 -20 -15 -11 0 -20 7 -20 15 0 10 -10 15 -30 15 -27 0 -30
-3 -30 -30 0 -29 2 -30 45 -30 31 0 47 5 51 15 4 10 20 15 50 15 32 0 44 4 44
15 0 8 9 15 20 15 16 0 20 -7 20 -30 0 -27 3 -30 30 -30 20 0 30 5 30 15 0 10
11 15 35 15 l35 0 0 65 c0 51 3 65 15 65 10 0 15 11 15 35 0 32 -2 35 -30 35
-23 0 -30 -4 -30 -20 0 -11 7 -20 15 -20 8 0 15 -7 15 -15 0 -8 -7 -15 -15
-15 -8 0 -15 7 -15 15 0 8 -9 15 -20 15 -11 0 -20 -7 -20 -15 0 -8 9 -15 20
-15 15 0 20 -7 20 -25 0 -14 -8 -29 -20 -35 -13 -7 -20 -21 -20 -40 0 -20 -5
-30 -15 -30 -8 0 -15 7 -15 15 0 8 -7 15 -15 15 -8 0 -15 7 -15 15 0 9 7 18
15 21 20 8 20 64 0 64 -8 0 -15 7 -15 15 0 8 7 15 15 15 11 0 15 12 15 50 0
38 -4 50 -15 50 -8 0 -15 7 -15 15 0 8 7 15 15 15 11 0 15 12 15 50 l0 50 35
0 c24 0 35 -5 35 -15 0 -8 7 -15 15 -15 24 0 18 -52 -9 -77 -13 -13 -29 -23
-35 -23 -6 0 -11 -7 -11 -15 0 -12 14 -15 65 -15 l65 0 0 -65 c0 -58 2 -65 20
-65 11 0 20 -7 20 -15 0 -8 -9 -15 -20 -15 -11 0 -20 7 -20 15 0 8 -7 15 -15
15 -10 0 -15 -11 -15 -35 l0 -35 49 0 c40 0 50 3 54 20 7 27 53 27 60 0 3 -11
12 -20 21 -20 9 0 16 -7 16 -15 0 -11 -12 -15 -50 -15 -38 0 -50 -4 -50 -15 0
-11 12 -15 50 -15 38 0 50 4 50 15 0 11 12 15 50 15 38 0 50 -4 50 -15 0 -11
12 -15 45 -15 33 0 45 4 45 15 0 10 -10 15 -30 15 -20 0 -30 5 -30 15 0 8 -7
15 -15 15 -8 0 -15 9 -15 20 0 13 -7 20 -20 20 -13 0 -20 -7 -20 -20 0 -11 -7
-20 -15 -20 -8 0 -15 9 -15 20 0 11 -7 20 -15 20 -8 0 -15 7 -15 15 0 8 7 15
15 15 8 0 15 -7 15 -15 0 -8 7 -15 15 -15 10 0 15 10 15 30 0 23 4 30 20 30
16 0 20 -7 20 -30 0 -20 5 -30 15 -30 8 0 15 -9 15 -20 0 -11 7 -20 15 -20 8
0 15 9 15 20 0 11 -7 20 -15 20 -8 0 -15 7 -15 15 0 8 7 15 15 15 8 0 15 7 15
15 0 10 -10 15 -30 15 -20 0 -30 5 -30 15 0 12 17 15 94 15 74 0 95 -3 100
-15 3 -8 12 -15 21 -15 8 0 15 -7 15 -15 0 -8 7 -15 15 -15 8 0 15 -6 15 -14
0 -8 -7 -16 -15 -20 -10 -4 -15 -20 -15 -51 l0 -45 45 0 c33 0 45 4 45 15 0
10 -10 15 -30 15 -28 0 -30 3 -30 35 0 24 5 35 15 35 8 0 15 7 15 15 0 10 11
15 35 15 24 0 35 5 35 15 0 8 7 15 15 15 8 0 15 7 15 15 0 8 -7 15 -15 15 -10
0 -15 11 -15 35 0 24 5 35 15 35 8 0 15 -7 15 -15 0 -8 7 -15 15 -15 8 0 15 7
15 16 0 31 35 10 38 -24 2 -20 9 -32 18 -32 8 0 14 -7 14 -15 0 -8 7 -15 15
-15 8 0 15 -7 15 -15 0 -8 7 -15 15 -15 8 0 15 -7 15 -15 0 -8 9 -15 20 -15
11 0 20 7 20 15 0 12 14 15 65 15 51 0 65 3 65 15 0 8 7 15 15 15 8 0 15 -7
15 -15 0 -8 7 -15 15 -15 8 0 15 6 15 14 0 7 9 16 20 19 11 3 20 10 20 15 0 5
-9 12 -20 15 -11 3 -20 12 -20 21 0 9 -7 16 -15 16 -8 0 -15 7 -15 15 0 8 -7
15 -15 15 -8 0 -15 -7 -15 -16 0 -28 -35 -11 -38 19 -2 15 -9 27 -18 27 -8 0
-14 7 -14 15 0 12 -14 15 -65 15 -51 0 -65 -3 -65 -15 0 -11 -12 -15 -50 -15
-38 0 -50 -4 -50 -15 0 -8 -7 -15 -15 -15 -8 0 -15 7 -15 15 0 8 -7 15 -15 15
-8 0 -15 7 -15 15 0 8 7 15 15 15 8 0 15 -7 15 -15 0 -8 7 -15 15 -15 8 0 15
7 15 15 0 8 6 15 14 15 23 0 29 31 6 37 -11 3 -20 12 -20 19 0 9 -11 14 -30
14 -20 0 -30 -5 -30 -15 0 -10 -11 -15 -35 -15 -24 0 -35 5 -35 15 0 8 -7 15
-15 15 -8 0 -15 7 -15 15 0 8 7 15 15 15 8 0 15 9 15 20 0 11 -7 20 -15 20
-10 0 -15 10 -15 30 0 20 5 30 15 30 8 0 15 7 15 15 0 20 20 19 36 -3 13 -16
15 -16 28 1 7 9 18 17 25 17 6 0 11 9 11 20 0 16 -7 20 -30 20 -18 0 -33 6
-36 15 -8 19 -34 19 -34 0 0 -8 -7 -15 -15 -15 -8 0 -15 7 -15 15 0 10 -11 15
-35 15 -39 0 -50 -24 -15 -33 26 -7 26 -23 0 -30 -28 -7 -28 -63 0 -70 16 -4
20 -14 20 -51 0 -34 4 -46 15 -46 8 0 15 -7 15 -15 0 -8 7 -15 15 -15 8 0 15
-9 15 -20 0 -26 -20 -26 -27 0 -3 11 -12 20 -19 20 -8 0 -14 7 -14 15 0 8 -9
15 -20 15 -11 0 -20 -7 -20 -15 0 -10 -10 -15 -30 -15 -20 0 -30 5 -30 15 0
10 -11 15 -35 15 -24 0 -35 -5 -35 -15 0 -10 -10 -15 -29 -15 -20 0 -30 -6
-34 -20 -7 -26 -27 -26 -34 0 -5 18 -12 21 -52 18 -44 -3 -46 -4 -49 -35 -2
-21 -9 -33 -18 -33 -10 0 -14 13 -14 50 l0 50 36 0 c34 0 35 1 32 32 -4 37
-27 50 -35 19 -4 -15 -13 -21 -34 -21 -19 0 -29 -5 -29 -15 0 -8 -7 -15 -15
-15 -8 0 -15 7 -15 15 0 8 7 15 15 15 8 0 15 7 15 15 0 9 7 18 15 21 8 4 15
12 15 20 0 8 7 14 15 14 8 0 15 7 15 15 0 8 9 15 20 15 11 0 20 7 20 15 0 13
25 21 53 16 4 0 7 8 7 19 0 11 -7 20 -15 20 -8 0 -15 7 -15 15 0 8 -7 15 -15
15 -8 0 -15 -7 -15 -15 0 -8 -9 -15 -20 -15 -15 0 -20 7 -20 29 0 16 -6 31
-15 35 -8 3 -15 12 -15 21 0 8 -7 15 -15 15 -8 0 -15 7 -15 15 0 11 -12 15
-50 15 -38 0 -50 4 -50 15 0 10 10 15 30 15 18 0 33 6 36 15 4 8 12 15 20 15
8 0 14 9 14 20 0 11 7 20 15 20 8 0 15 7 15 15 0 8 7 15 15 15 10 0 15 10 15
31 0 22 5 32 20 36 14 4 20 14 20 34 0 26 4 29 30 29 21 0 30 -5 30 -16 0 -9
7 -14 17 -12 25 5 28 28 4 28 -12 0 -21 6 -21 14 0 9 -12 16 -27 18 -23 2 -29
8 -31 34 -2 22 -9 34 -23 37 -14 4 -19 14 -19 36 0 21 -5 31 -15 31 -8 0 -15
7 -15 15 0 12 14 15 65 15 l65 0 0 30 c0 20 -5 30 -15 30 -8 0 -15 -7 -15 -16
0 -11 -8 -14 -32 -12 -37 3 -48 23 -18 31 23 6 27 37 5 37 -9 0 -18 7 -21 15
-12 30 -34 16 -34 -20 0 -24 -5 -35 -15 -35 -12 0 -15 -13 -15 -60 0 -45 4
-62 15 -66 27 -11 17 -34 -15 -34 -29 0 -30 1 -30 50 0 43 -3 50 -20 50 -11 0
-20 -7 -20 -15 0 -8 -7 -15 -15 -15 -8 0 -15 7 -15 15 0 8 7 15 15 15 8 0 15
6 15 14 0 7 9 16 20 19 16 4 20 14 20 51 0 34 4 46 15 46 8 0 15 7 15 15 0 10
10 15 29 15 26 0 30 4 33 32 3 34 38 55 38 23 0 -8 7 -18 15 -21 10 -4 15 -20
15 -49 0 -42 1 -44 33 -47 31 -3 32 -5 35 -50 3 -46 5 -48 33 -48 18 0 29 5
29 14 0 9 12 16 33 18 31 3 32 5 35 51 3 42 1 47 -17 47 -12 0 -21 -7 -21 -15
0 -8 -7 -15 -15 -15 -9 0 -15 -9 -15 -21 0 -33 -25 -16 -28 19 -3 30 -1 32 27
32 21 0 31 5 31 15 0 22 -79 21 -95 -2 -16 -22 -35 -8 -35 28 0 19 -5 29 -15
29 -8 0 -15 7 -15 15 0 8 -7 15 -15 15 -8 0 -15 7 -15 15 0 8 7 15 15 15 8 0
15 7 15 15 0 8 -7 15 -15 15 -11 0 -15 12 -15 48 0 27 -3 51 -6 55 -10 9 -34
-4 -34 -19 0 -9 -11 -14 -30 -14 -20 0 -30 -5 -30 -15 0 -10 10 -15 30 -15 21
0 30 -5 30 -16 0 -9 9 -18 20 -21 35 -9 24 -33 -15 -33 -24 0 -35 -5 -35 -15
0 -8 -7 -15 -15 -15 -8 0 -15 -7 -15 -15 0 -8 -6 -15 -14 -15 -8 0 -16 7 -20
15 -3 9 -18 15 -36 15 -20 0 -30 -5 -30 -15 0 -10 -10 -15 -30 -15 -20 0 -30
5 -30 15 0 8 7 15 15 15 8 0 15 7 15 15 0 8 7 15 15 15 8 0 15 7 15 15 0 8 7
15 15 15 8 0 15 9 15 20 0 11 -7 20 -15 20 -23 0 -18 46 9 74 13 15 28 26 35
26 6 0 11 18 11 45 l0 44 63 3 c62 3 62 3 65 36 3 28 7 32 33 32 19 0 29 -5
29 -15 0 -8 8 -15 19 -15 10 0 21 -8 23 -18 3 -10 16 -18 31 -20 21 -1 27 3
27 18 0 16 -7 20 -30 20 -27 0 -30 3 -30 30 0 20 5 30 15 30 8 0 15 -7 15 -15
0 -8 7 -15 15 -15 8 0 15 -6 15 -14 0 -9 12 -16 32 -18 37 -4 48 -23 19 -33
-17 -5 -21 -15 -21 -51 0 -37 3 -44 20 -44 11 0 20 7 20 15 0 8 7 15 15 15 8
0 15 6 15 14 0 8 -7 16 -15 20 -26 10 -16 26 15 26 23 0 30 4 30 20 0 11 -7
20 -15 20 -8 0 -15 7 -15 15 0 8 -7 15 -15 15 -8 0 -15 7 -15 15 0 8 7 15 15
15 8 0 15 -7 15 -15 0 -8 7 -15 15 -15 8 0 15 -6 15 -14 0 -7 9 -16 20 -19 15
-4 20 -14 20 -36 0 -28 3 -31 30 -31 28 0 30 3 30 35 0 24 -5 35 -15 35 -8 0
-15 7 -15 15 0 8 7 15 15 15 10 0 15 11 15 35 0 22 -4 34 -12 33 -6 -2 -14 5
-16 15 -3 13 3 17 27 17 28 0 31 3 31 29 0 36 -19 51 -27 22 -7 -27 -19 -27
-33 -1 -10 18 -19 21 -68 18 -45 -2 -58 -7 -60 -20 -3 -14 3 -18 27 -18 21 0
31 -5 31 -16 0 -12 -10 -14 -47 -12 l-48 3 -3 63 c-3 57 -1 62 18 62 11 0 20
-7 20 -15 0 -8 7 -15 15 -15 8 0 15 7 15 15 0 8 -7 15 -15 15 -8 0 -15 7 -15
15 0 8 7 15 15 15 8 0 15 9 15 20 0 16 -7 20 -35 20 -32 0 -35 2 -35 30 0 20
5 30 15 30 9 0 18 7 21 15 4 9 19 15 35 15 22 0 29 5 29 20 0 11 -7 20 -15 20
-8 0 -15 7 -15 15 0 8 7 15 15 15 8 0 15 -7 15 -15 0 -8 9 -15 20 -15 11 0 20
-7 20 -15 0 -9 7 -18 15 -21 30 -12 16 -34 -20 -34 -32 0 -35 -2 -35 -29 0
-21 6 -32 20 -36 27 -9 27 -55 0 -62 -11 -3 -20 -12 -20 -19 0 -10 14 -14 50
-14 38 0 50 4 50 15 0 8 7 15 15 15 8 0 15 -7 15 -15 0 -8 9 -15 21 -15 17 0
20 5 17 33 -3 28 -7 32 -35 35 -21 2 -33 9 -33 18 0 9 -11 14 -30 14 -20 0
-30 5 -30 15 0 8 7 15 15 15 8 0 15 7 15 15 0 8 7 15 15 15 8 0 15 7 15 15 0
8 7 15 15 15 8 0 15 -7 15 -15 0 -8 -7 -15 -15 -15 -8 0 -15 -7 -15 -15 0 -10
11 -15 35 -15 24 0 35 5 35 15 0 8 7 15 15 15 8 0 15 -6 15 -14 0 -9 12 -16
32 -18 46 -4 49 -28 4 -28 -25 0 -36 4 -36 15 0 8 -7 15 -15 15 -8 0 -15 -7
-15 -15 0 -9 7 -18 15 -21 10 -4 15 -20 15 -50 l0 -44 80 0 80 0 0 35 c0 24
-5 35 -15 35 -8 0 -15 5 -15 10 0 6 16 10 35 10 32 0 35 -2 35 -30 0 -27 3
-30 30 -30 27 0 30 3 30 30 0 29 1 30 50 30 43 0 50 3 50 20 0 11 -7 20 -15
20 -8 0 -15 7 -15 15 0 8 7 15 15 15 8 0 15 7 15 15 0 8 7 15 15 15 10 0 15
-10 15 -30 0 -23 4 -30 20 -30 16 0 20 7 20 31 0 22 -5 32 -20 36 -11 3 -20
12 -20 19 0 8 9 14 20 14 16 0 20 7 20 30 0 23 -4 30 -20 30 -15 0 -20 -7 -20
-27 -1 -18 -11 -37 -30 -53 -17 -13 -30 -30 -30 -37 0 -21 -31 -15 -37 8 -4
15 -12 19 -32 17 -21 -2 -27 -9 -29 -35 -2 -25 1 -33 12 -33 9 0 16 -7 16 -15
0 -10 -10 -15 -30 -15 -26 0 -30 3 -30 29 0 20 -6 30 -20 34 -15 4 -20 14 -20
37 0 21 -4 30 -12 28 -8 -3 -14 -28 -16 -66 -2 -46 -7 -62 -17 -62 -10 0 -15
10 -15 30 0 20 -5 30 -15 30 -20 0 -19 20 2 35 9 7 13 17 9 23 -10 17 -26 15
-26 -3 0 -8 -9 -15 -20 -15 -11 0 -20 7 -20 15 0 8 -5 15 -10 15 -6 0 -13 -7
-16 -15 -8 -21 -74 -21 -74 0 0 8 9 15 20 15 11 0 20 7 20 15 0 12 14 15 65
15 51 0 65 3 65 15 0 8 7 15 15 15 8 0 15 -7 15 -15 0 -8 7 -15 15 -15 8 0 15
7 15 15 0 8 -7 15 -15 15 -10 0 -15 11 -15 35 0 24 -5 35 -15 35 -8 0 -15 7
-15 15 0 8 7 15 15 15 8 0 15 7 15 15 0 8 7 15 15 15 10 0 15 11 15 35 0 24
-5 35 -15 35 -8 0 -15 7 -15 15 0 8 -7 15 -15 15 -8 0 -15 -7 -15 -15 0 -21
-15 -19 -44 9 -20 18 -26 33 -26 65 0 31 -4 41 -16 41 -9 0 -14 7 -12 17 4 24
28 28 28 5 0 -11 8 -22 19 -25 12 -3 21 -15 23 -33 4 -39 22 -37 26 4 4 42 30
43 34 0 2 -17 9 -33 16 -36 8 -3 12 12 12 52 l0 56 -44 0 c-30 0 -46 5 -50 16
-4 11 -17 14 -48 12 -39 -3 -43 -6 -46 -32 -2 -18 -11 -30 -23 -33 -13 -4 -19
-14 -19 -34 0 -16 4 -29 9 -29 4 0 20 -11 34 -24 18 -17 27 -36 29 -67 4 -53
28 -66 28 -15 0 29 4 36 20 36 11 0 20 -7 20 -15 0 -8 7 -15 15 -15 8 0 15 7
15 15 0 8 7 15 15 15 10 0 15 -10 15 -29 0 -16 -6 -31 -15 -35 -8 -3 -15 -12
-15 -21 0 -8 -7 -15 -14 -15 -11 0 -16 -14 -18 -47 -3 -49 -25 -71 -35 -34 -7
27 -23 27 -30 1 -3 -11 -12 -20 -19 -20 -8 0 -14 -7 -14 -15 0 -8 -9 -15 -20
-15 -11 0 -20 6 -20 14 0 8 -7 17 -16 20 -25 10 -10 30 22 31 42 0 39 29 -3
33 -19 2 -33 -1 -33 -8 0 -6 -13 -24 -30 -40 -16 -16 -30 -34 -30 -40 0 -5 -9
-10 -20 -10 -11 0 -20 6 -20 14 0 8 -12 16 -27 18 -28 3 -45 28 -19 28 9 0 16
8 16 20 0 16 -7 20 -35 20 -24 0 -35 5 -35 15 0 8 -7 15 -15 15 -8 0 -15 -7
-15 -15 0 -8 7 -15 15 -15 11 0 15 -12 15 -50 0 -38 -4 -50 -15 -50 -8 0 -15
7 -15 15 0 8 -7 15 -15 15 -8 0 -15 5 -15 11 0 15 -42 59 -57 59 -7 0 -13 7
-13 15 0 8 -7 15 -15 15 -8 0 -15 -7 -15 -15 0 -8 7 -15 15 -15 8 0 15 -7 15
-15 0 -10 -10 -15 -30 -15 l-30 0 0 110 c0 87 3 110 14 110 8 0 16 -7 20 -15
8 -22 26 -18 26 5 0 11 -7 20 -15 20 -12 0 -15 14 -15 66 l0 65 -47 -3 c-46
-3 -48 -4 -51 -35 -2 -24 1 -33 11 -33 8 0 17 -7 21 -15 3 -8 12 -15 21 -15
24 0 17 -27 -8 -32 -30 -6 -47 1 -47 18 0 8 -7 14 -15 14 -8 0 -15 -7 -15 -15
0 -8 -7 -15 -15 -15 -8 0 -15 7 -15 15 0 8 -9 15 -20 15 -11 0 -20 7 -20 15 0
8 9 15 20 15 11 0 20 -7 20 -15 0 -8 7 -15 15 -15 11 0 15 12 15 50 0 38 -4
50 -15 50 -8 0 -15 -7 -15 -15 0 -8 -9 -15 -20 -15 -11 0 -20 7 -20 15 0 9 -9
15 -25 15 -14 0 -28 -7 -31 -15 -8 -20 -24 -19 -40 3 -13 16 -15 16 -28 0 -16
-22 -36 -23 -36 -3 0 8 -7 15 -15 15 -8 0 -15 -7 -15 -15 0 -8 7 -15 15 -15 8
0 15 -9 15 -20 0 -16 7 -20 30 -20 18 0 33 -6 36 -15 4 -8 12 -15 20 -15 8 0
14 7 14 15 0 8 7 15 15 15 11 0 15 -12 15 -50 0 -38 -4 -50 -15 -50 -10 0 -15
-10 -15 -30 0 -20 5 -30 15 -30 10 0 15 10 15 30 0 20 5 30 15 30 10 0 15 -10
15 -30 0 -20 -5 -30 -15 -30 -8 0 -15 -9 -15 -20 0 -11 6 -20 14 -20 8 0 16
-7 20 -15 4 -11 21 -15 66 -15 47 0 60 -3 60 -15 0 -8 -7 -15 -15 -15 -8 0
-15 -6 -15 -14 0 -8 -7 -16 -15 -20 -8 -3 -15 -13 -15 -22 0 -27 -25 -9 -30
22 -4 24 -10 30 -38 32 -28 3 -32 7 -32 32 0 35 -19 50 -27 21 -4 -16 -13 -21
-39 -21 -32 0 -34 2 -34 35 0 24 -5 35 -15 35 -8 0 -15 7 -15 15 0 8 -7 15
-15 15 -10 0 -15 -10 -15 -30 0 -23 -4 -30 -20 -30 -16 0 -20 7 -20 30 0 23 4
30 20 30 11 0 20 7 20 15 0 8 7 15 15 15 8 0 15 9 15 20 0 11 -7 20 -15 20
-10 0 -15 10 -15 30 0 29 -1 30 -50 30 l-50 0 0 35 c0 24 -5 35 -15 35 -10 0
-15 -11 -15 -35 0 -24 5 -35 15 -35 8 0 15 -7 15 -15 0 -10 -11 -15 -35 -15
-24 0 -35 5 -35 15 0 8 -7 15 -15 15 -8 0 -15 -7 -15 -15 0 -8 -7 -15 -15 -15
-8 0 -15 7 -15 15 0 8 7 15 15 15 8 0 15 9 15 20 0 11 -5 20 -11 20 -7 0 -17
8 -24 17 -12 16 -15 15 -39 -7 -20 -19 -26 -35 -26 -67 0 -32 -4 -43 -15 -43
-8 0 -15 7 -15 15 0 8 -7 15 -15 15 -8 0 -15 6 -15 14 0 7 -9 16 -21 19 -24 6
-21 30 4 35 12 2 17 -3 17 -17 0 -12 6 -21 15 -21 8 0 15 9 15 20 0 11 -6 20
-14 20 -8 0 -16 7 -20 15 -3 8 -17 15 -31 15 -14 0 -28 -7 -31 -15 -4 -8 -12
-15 -20 -15 -10 0 -14 -14 -14 -48 0 -27 -3 -51 -6 -55 -10 -9 -34 4 -34 19 0
8 -7 14 -15 14 -10 0 -15 10 -15 30 0 18 6 33 15 36 8 4 15 12 15 20 0 21
-148 20 -156 -1 -4 -9 -19 -15 -40 -15 -24 0 -34 5 -34 15 0 8 -5 15 -10 15
-6 0 -13 -7 -16 -15 -4 -8 -12 -15 -20 -15 -8 0 -14 7 -14 15 0 8 -7 15 -15
15 -8 0 -15 -6 -15 -14 0 -7 -9 -16 -20 -19 -11 -3 -20 -12 -20 -21 0 -12 -10
-16 -45 -16 -38 0 -45 3 -45 20 0 11 7 20 15 20 8 0 15 7 15 15 0 8 -7 15 -15
15 -8 0 -15 -7 -15 -15 0 -10 -11 -15 -35 -15 -24 0 -35 5 -35 15 0 8 -7 15
-15 15 -8 0 -15 -7 -15 -15z m320 -35 c0 -13 7 -20 20 -20 11 0 20 -7 20 -15
0 -8 7 -15 15 -15 10 0 15 -11 15 -35 0 -32 -2 -35 -31 -35 -22 0 -32 5 -36
20 -4 16 -14 20 -49 20 -32 0 -44 4 -44 15 0 11 12 15 45 15 33 0 45 4 45 15
0 8 -7 15 -15 15 -8 0 -15 9 -15 20 0 11 7 20 15 20 8 0 15 -9 15 -20z m137 0
c3 -11 12 -20 19 -20 8 0 14 -7 14 -15 0 -8 7 -15 15 -15 8 0 15 -7 15 -15 0
-9 -9 -15 -25 -15 -14 0 -29 -8 -35 -20 -6 -11 -17 -20 -25 -20 -22 0 -18 -27
5 -33 14 -3 20 -14 20 -31 0 -19 -5 -26 -20 -26 -16 0 -20 7 -20 30 0 20 -5
30 -15 30 -8 0 -15 -7 -15 -15 0 -8 -7 -15 -15 -15 -8 0 -15 -7 -15 -15 0 -8
-9 -15 -20 -15 -11 0 -20 5 -20 11 0 6 9 13 20 16 11 3 20 12 20 19 0 8 7 14
15 14 8 0 15 7 15 15 0 8 7 15 15 15 11 0 15 12 15 50 0 38 -4 50 -15 50 -8 0
-15 9 -15 20 0 16 7 20 31 20 22 0 32 -5 36 -20z m951 -3 c2 -12 -3 -17 -17
-17 -12 0 -21 6 -21 13 0 31 32 34 38 4z m-1348 -47 c0 -23 -4 -30 -20 -30
-11 0 -23 0 -27 -1 -5 0 -9 7 -11 15 -2 9 3 16 12 16 9 0 16 7 16 15 0 8 7 15
15 15 10 0 15 -10 15 -30z m100 -11 c0 -7 -7 -17 -17 -24 -9 -7 -13 -17 -9
-23 11 -18 23 -14 29 8 10 39 27 20 27 -30 0 -43 3 -50 20 -50 11 0 20 7 20
15 0 8 7 15 15 15 8 0 15 -7 15 -15 0 -8 7 -15 15 -15 8 0 15 7 15 15 0 8 7
15 15 15 8 0 15 -7 15 -15 0 -8 -7 -15 -15 -15 -8 0 -15 -7 -15 -15 0 -8 -7
-15 -15 -15 -8 0 -15 7 -15 15 0 8 -7 15 -15 15 -8 0 -15 -6 -15 -14 0 -8 -9
-18 -20 -21 -11 -3 -20 -13 -20 -21 0 -11 -15 -14 -65 -14 -49 0 -65 3 -65 14
0 7 9 16 21 19 16 4 20 12 17 34 -5 41 -38 45 -38 4 0 -28 -3 -31 -30 -31 -20
0 -30 5 -30 15 0 8 -9 15 -20 15 -11 0 -20 7 -20 15 0 8 9 15 20 15 11 0 20 7
20 15 0 10 10 15 30 15 19 0 30 5 30 14 0 7 9 16 20 19 11 3 20 12 20 21 0 11
9 16 30 16 17 0 30 -5 30 -11z m1740 -4 c0 -8 -7 -15 -15 -15 -8 0 -15 7 -15
15 0 8 7 15 15 15 8 0 15 -7 15 -15z m-890 -56 c0 -19 -5 -29 -15 -29 -10 0
-15 -10 -15 -30 0 -20 -5 -30 -15 -30 -10 0 -15 10 -15 30 0 20 5 30 15 30 8
0 15 7 15 15 0 8 -7 15 -15 15 -8 0 -15 -7 -15 -15 0 -8 -7 -15 -15 -15 -8 0
-15 -7 -15 -15 0 -8 -9 -15 -20 -15 -11 0 -20 7 -20 15 0 8 9 15 20 15 11 0
20 6 20 14 0 7 -9 16 -20 19 -38 10 -20 26 33 29 70 4 77 1 77 -33z m-360 16
c0 -8 9 -15 20 -15 11 0 20 7 20 15 0 8 7 15 15 15 8 0 15 -7 15 -15 0 -8 -7
-15 -15 -15 -8 0 -15 -7 -15 -15 0 -8 7 -15 15 -15 10 0 15 -10 15 -30 0 -20
-5 -30 -15 -30 -10 0 -15 10 -15 30 0 23 -4 30 -20 30 -29 0 -28 -56 1 -65 29
-10 18 -29 -19 -33 l-32 -3 0 50 c0 39 4 51 15 51 8 0 15 6 15 14 0 8 -7 16
-15 20 -8 3 -15 10 -15 16 0 5 7 10 15 10 8 0 15 -7 15 -15z m170 0 c0 -8 7
-15 15 -15 11 0 15 -12 15 -45 0 -38 -3 -45 -19 -45 -30 0 -51 -11 -51 -26 0
-9 -11 -14 -30 -14 -20 0 -30 5 -30 15 0 8 7 15 15 15 12 0 15 14 15 65 l0 65
35 0 c24 0 35 -5 35 -15z m-230 -60 l0 -45 -50 0 -50 0 0 45 0 45 50 0 50 0 0
-45z m780 0 l0 -45 -45 0 -45 0 0 45 0 45 45 0 45 0 0 -45z m-950 -71 c0 -8
-7 -14 -15 -14 -15 0 -21 21 -9 33 10 9 24 -2 24 -19z m530 1 c0 -8 7 -15 15
-15 8 0 15 7 15 15 0 8 7 15 15 15 10 0 15 -10 15 -30 l0 -30 85 0 c63 0 85
-3 85 -13 0 -7 13 -24 30 -37 33 -28 39 -66 13 -85 -25 -19 -6 -35 43 -35 l44
0 0 -45 c0 -45 0 -45 -35 -45 -38 0 -48 19 -15 27 35 9 24 33 -15 33 -32 0
-35 -2 -35 -30 0 -17 7 -33 18 -40 16 -10 16 -10 0 -20 -10 -6 -18 -18 -18
-25 0 -10 -10 -15 -30 -15 -32 0 -42 -23 -15 -34 9 -3 15 -18 15 -36 0 -20 5
-30 15 -30 8 0 15 -7 15 -15 0 -8 7 -15 15 -15 8 0 15 7 15 15 0 10 11 15 35
15 24 0 35 5 35 15 0 8 7 15 15 15 8 0 15 -7 15 -15 0 -11 12 -15 50 -15 38 0
50 4 50 15 0 8 7 15 15 15 8 0 15 -7 15 -15 0 -8 -7 -15 -14 -15 -11 0 -16
-14 -18 -47 -3 -54 -21 -65 -26 -15 -3 29 -6 32 -38 32 -24 0 -34 5 -34 15 0
8 -7 15 -15 15 -8 0 -15 -7 -15 -15 0 -10 -11 -15 -35 -15 l-35 0 0 -65 c0
-51 -3 -65 -15 -65 -8 0 -15 -7 -15 -15 0 -9 7 -18 15 -21 9 -4 15 -19 15 -35
0 -19 -5 -29 -15 -29 -10 0 -15 -10 -15 -30 0 -20 -5 -30 -15 -30 -12 0 -15
13 -15 60 0 55 -2 60 -24 66 -29 7 -46 -1 -46 -22 0 -8 -7 -14 -15 -14 -11 0
-15 12 -15 50 l0 50 -36 0 -35 0 3 -47 c3 -46 4 -48 36 -51 32 -3 48 -32 17
-32 -8 0 -15 -7 -15 -15 0 -8 7 -15 15 -15 8 0 15 7 15 15 0 8 7 15 15 15 8 0
15 7 15 16 0 9 7 14 18 12 12 -2 18 -15 20 -46 3 -37 1 -42 -17 -42 -12 0 -21
7 -21 15 0 8 -7 15 -15 15 -8 0 -15 -7 -15 -15 0 -8 -7 -15 -15 -15 -8 0 -15
7 -15 15 0 8 -9 15 -20 15 -11 0 -20 7 -20 15 0 8 -7 15 -15 15 -10 0 -15 11
-15 35 0 24 -5 35 -15 35 -8 0 -15 7 -15 15 0 8 -7 15 -15 15 -8 0 -15 -7 -15
-15 0 -8 -9 -15 -20 -15 -11 0 -20 7 -20 15 0 8 9 15 20 15 11 0 20 7 20 15 0
10 -11 15 -35 15 -24 0 -35 -5 -35 -15 0 -10 -11 -15 -35 -15 -24 0 -35 5 -35
15 0 10 11 15 35 15 24 0 35 5 35 15 0 10 11 15 35 15 24 0 35 -5 35 -15 0
-10 10 -15 30 -15 23 0 30 4 30 20 0 16 -7 20 -30 20 -27 0 -30 3 -30 30 0 20
5 30 15 30 11 0 15 12 15 50 l0 50 -35 0 c-24 0 -35 5 -35 15 0 10 11 15 35
15 37 0 50 25 20 36 -8 4 -15 17 -15 31 0 16 -7 27 -20 30 -11 3 -20 12 -20
19 0 9 -11 14 -30 14 -21 0 -30 5 -30 16 0 9 -9 18 -20 21 -30 8 -19 27 17 31
24 2 32 -1 36 -17 7 -27 23 -27 30 -1 3 11 12 20 21 20 11 0 16 9 16 30 0 20
5 30 15 30 8 0 15 7 15 15 0 8 7 15 15 15 8 0 15 -7 15 -15 0 -8 -7 -15 -15
-15 -10 0 -15 -10 -15 -30 0 -20 -5 -30 -15 -30 -10 0 -15 -11 -15 -35 0 -24
5 -35 15 -35 8 0 15 6 15 14 0 8 7 16 15 20 10 4 15 -1 15 -14 0 -34 28 -23
32 13 3 28 7 32 36 35 28 3 32 7 32 33 0 19 5 29 15 29 8 0 15 -7 15 -15 0 -8
9 -15 20 -15 17 0 20 -7 20 -50 0 -38 4 -50 15 -50 11 0 15 12 15 50 0 37 -4
50 -14 50 -9 0 -16 12 -18 33 l-3 32 -65 2 c-36 1 -73 2 -82 2 -10 1 -18 8
-18 16 0 8 -7 15 -15 15 -8 0 -15 7 -15 15 0 8 -6 15 -14 15 -8 0 -16 -7 -20
-15 -3 -8 -12 -15 -21 -15 -8 0 -15 -7 -15 -15 0 -8 -7 -15 -15 -15 -8 0 -15
7 -15 15 0 8 7 15 15 15 10 0 15 10 15 30 0 28 3 30 35 30 24 0 35 -5 35 -15z
m-1020 -30 c0 -8 7 -15 15 -15 8 0 15 -7 15 -15 0 -10 -10 -15 -30 -15 -20 0
-30 5 -30 15 0 8 -7 15 -15 15 -8 0 -15 7 -15 15 0 10 10 15 30 15 20 0 30 -5
30 -15z m-160 -30 c0 -8 -9 -15 -20 -15 -20 0 -26 11 -13 23 12 13 33 7 33 -8z
m60 1 c0 -15 21 -26 52 -26 11 0 18 -5 16 -12 -3 -8 -22 -13 -49 -13 -42 0
-44 1 -47 33 -2 24 1 32 12 32 9 0 16 -6 16 -14z m300 -1 c0 -8 -7 -15 -15
-15 -8 0 -15 7 -15 15 0 8 7 15 15 15 8 0 15 -7 15 -15z m520 1 c0 -8 -7 -16
-15 -20 -10 -4 -15 -20 -15 -51 l0 -45 50 0 c38 0 50 4 50 15 0 8 -7 15 -15
15 -8 0 -15 7 -15 15 0 8 7 15 15 15 8 0 15 -7 15 -15 0 -8 7 -15 15 -15 10 0
15 -10 15 -30 0 -18 6 -33 15 -36 9 -4 15 -19 15 -35 0 -22 5 -29 20 -29 19 0
27 -19 14 -33 -10 -9 -34 4 -34 19 0 8 -7 14 -15 14 -8 0 -15 -9 -15 -20 0
-13 -5 -18 -15 -14 -9 4 -15 19 -15 35 0 19 5 29 15 29 8 0 15 9 15 20 0 15
-7 20 -25 20 -14 0 -29 -8 -35 -20 -6 -11 -17 -20 -25 -20 -8 0 -15 -7 -15
-15 0 -8 -7 -15 -15 -15 -8 0 -15 -7 -15 -15 0 -8 -7 -15 -15 -15 -8 0 -15 7
-15 15 0 8 7 15 15 15 8 0 15 7 15 15 0 8 7 15 15 15 8 0 15 9 15 20 0 16 -7
20 -30 20 -29 0 -30 2 -30 44 0 36 -4 46 -20 51 -11 3 -20 10 -20 15 0 4 9 10
20 13 11 3 20 12 20 21 0 11 9 16 30 16 19 0 30 -5 30 -14z m70 -1 c0 -8 -7
-15 -15 -15 -8 0 -15 7 -15 15 0 8 7 15 15 15 8 0 15 -7 15 -15z m650 -34 c0
-5 9 -13 20 -16 11 -3 20 -13 20 -21 0 -8 7 -14 15 -14 8 0 15 -7 15 -15 0
-10 11 -15 35 -15 32 0 35 2 35 30 0 20 5 30 15 30 8 0 15 -7 15 -15 0 -8 7
-15 15 -15 10 0 15 -10 15 -30 0 -18 6 -33 15 -36 27 -11 17 -36 -12 -32 -23
2 -29 8 -31 36 -3 31 -32 48 -32 18 0 -8 -14 -16 -31 -18 -25 -4 -33 -1 -37
14 -2 10 -11 18 -18 18 -8 0 -14 7 -14 16 0 9 -7 14 -17 12 -14 -2 -19 -15
-21 -51 -4 -55 -25 -61 -30 -9 -2 20 -9 32 -18 32 -8 0 -14 7 -14 15 0 8 7 15
15 15 10 0 15 10 15 30 0 20 5 30 15 30 8 0 15 -4 15 -9z m-550 -37 c0 -9 -7
-14 -17 -12 -25 5 -28 28 -4 28 12 0 21 -6 21 -16z m-920 -29 c0 -8 -7 -15
-15 -15 -8 0 -15 -6 -15 -14 0 -8 -9 -18 -20 -21 -11 -3 -20 -13 -20 -21 0 -8
9 -14 20 -14 11 0 20 7 20 15 0 8 7 15 15 15 8 0 15 -7 15 -15 0 -8 -7 -15
-15 -15 -8 0 -15 -7 -15 -15 0 -8 7 -15 15 -15 8 0 15 -7 15 -15 0 -8 -7 -15
-15 -15 -8 0 -15 7 -15 15 0 8 -9 15 -20 15 -11 0 -20 7 -20 15 0 8 -7 15 -15
15 -10 0 -15 11 -15 35 0 24 5 35 15 35 8 0 15 7 15 15 0 10 11 15 35 15 24 0
35 -5 35 -15z m1740 -15 c0 -23 -4 -30 -20 -30 -16 0 -20 7 -20 30 0 23 4 30
20 30 16 0 20 -7 20 -30z m190 20 c0 -5 -9 -19 -20 -30 -24 -24 -40 -26 -40
-5 0 8 -7 15 -15 15 -8 0 -15 7 -15 15 0 11 12 15 45 15 25 0 45 -4 45 -10z
m-1280 -105 c0 -8 -7 -15 -15 -15 -8 0 -15 7 -15 15 0 8 7 15 15 15 8 0 15 -7
15 -15z m960 0 c0 -10 10 -15 30 -15 20 0 30 -5 30 -15 0 -9 7 -18 15 -21 9
-4 15 -19 15 -35 0 -26 -4 -29 -30 -29 -27 0 -30 3 -30 30 0 18 -6 33 -15 36
-8 4 -15 12 -15 20 0 8 -9 14 -20 14 -15 0 -20 -7 -20 -29 0 -21 6 -32 20 -36
16 -5 20 -15 20 -51 0 -37 -3 -44 -20 -44 -11 0 -20 7 -20 15 0 8 -7 15 -15
15 -8 0 -15 -7 -15 -15 0 -11 -12 -15 -51 -15 -66 0 -62 24 4 28 46 3 47 4 47
38 0 32 -2 34 -35 34 -24 0 -35 5 -35 15 0 18 -16 20 -26 3 -4 -6 0 -16 9 -23
26 -19 20 -35 -13 -35 -20 0 -30 -5 -30 -15 0 -8 -7 -15 -15 -15 -8 0 -15 -7
-15 -15 0 -8 -9 -15 -20 -15 -11 0 -20 5 -20 11 0 6 9 13 20 16 11 3 20 12 20
19 0 8 7 14 15 14 10 0 15 10 15 30 0 20 5 30 15 30 8 0 15 9 15 20 0 17 7 20
50 20 38 0 50 4 50 15 0 10 11 15 35 15 24 0 35 -5 35 -15z m-1780 -29 c0 -8
9 -18 20 -21 11 -3 20 -10 20 -15 0 -11 -38 -20 -56 -13 -19 7 -19 63 1 63 8
0 15 -6 15 -14z m858 -38 c-3 -7 -11 -13 -18 -13 -23 0 -23 -26 -1 -32 29 -7
30 -59 1 -68 -14 -4 -20 -15 -20 -36 0 -28 -2 -29 -45 -29 -33 0 -45 -4 -45
-15 0 -8 -9 -15 -20 -15 -16 0 -20 7 -20 30 0 20 5 30 15 30 9 0 18 7 21 15 4
8 12 15 20 15 8 0 14 9 14 20 0 11 7 20 15 20 10 0 15 10 15 30 0 20 5 30 15
30 8 0 15 7 15 15 0 9 9 15 21 15 12 0 19 -5 17 -12z m142 -8 c24 -24 27 -70
4 -70 -9 0 -14 -7 -12 -17 3 -14 13 -18 48 -18 35 0 45 4 48 18 2 12 -3 17
-17 17 -17 0 -21 6 -21 30 0 28 3 30 35 30 24 0 35 -5 35 -15 0 -8 -7 -15 -15
-15 -8 0 -15 -7 -15 -15 0 -8 7 -15 15 -15 10 0 15 -11 15 -35 0 -24 5 -35 15
-35 8 0 15 7 15 15 0 8 9 15 20 15 11 0 20 -5 20 -11 0 -6 -9 -13 -20 -16 -11
-3 -20 -12 -20 -19 0 -8 -7 -14 -15 -14 -10 0 -15 -10 -15 -30 0 -28 -3 -30
-35 -30 -38 0 -47 14 -15 23 11 3 20 12 20 21 0 12 -10 16 -35 16 -24 0 -35 5
-35 15 0 10 -10 15 -30 15 -28 0 -30 3 -30 35 0 24 5 35 15 35 8 0 15 7 15 15
0 8 -7 15 -15 15 -8 0 -15 7 -15 16 0 9 -9 18 -20 21 -30 8 -24 23 10 23 17 0
39 -9 50 -20z m148 9 c-2 -6 -8 -10 -13 -10 -5 0 -11 4 -13 10 -2 6 4 11 13
11 9 0 15 -5 13 -11z m1152 -35 c0 -10 -14 -14 -50 -14 -37 0 -50 4 -50 14 0
9 12 16 33 18 44 4 67 -2 67 -18z m-1380 1 c0 -8 -7 -15 -15 -15 -8 0 -15 7
-15 15 0 8 7 15 15 15 8 0 15 -7 15 -15z m-620 -45 c0 -18 6 -33 15 -36 8 -4
15 -12 15 -19 0 -7 9 -15 20 -18 16 -4 20 -14 20 -46 0 -34 -3 -41 -20 -41
-17 0 -20 7 -20 45 0 43 -1 45 -30 45 -29 0 -30 1 -30 50 0 38 4 50 15 50 10
0 15 -10 15 -30z m330 15 c0 -11 12 -15 50 -15 37 0 50 -4 50 -14 0 -8 -9 -18
-20 -21 -11 -3 -20 -13 -20 -21 0 -10 -13 -14 -46 -14 -37 0 -47 4 -51 20 -3
11 -12 20 -19 20 -8 0 -14 7 -14 15 0 8 6 15 14 15 8 0 16 7 20 15 3 8 12 15
21 15 8 0 15 -7 15 -15z m-260 -30 c0 -8 -9 -15 -20 -15 -11 0 -20 7 -20 15 0
8 9 15 20 15 11 0 20 -7 20 -15z m550 0 c0 -8 -7 -15 -15 -15 -8 0 -15 7 -15
15 0 8 7 15 15 15 8 0 15 -7 15 -15z m920 0 c0 -8 -7 -15 -15 -15 -16 0 -20
12 -8 23 11 12 23 8 23 -8z m-30 -40 c0 -8 7 -15 15 -15 10 0 15 -10 15 -30 0
-18 6 -33 15 -36 21 -8 19 -21 -5 -27 -12 -3 -29 4 -45 19 -28 26 -32 44 -10
44 8 0 15 7 15 15 0 8 -7 15 -15 15 -8 0 -15 7 -15 15 0 8 7 15 15 15 8 0 15
-7 15 -15z m-890 -29 c0 -7 9 -16 20 -19 11 -3 20 -10 20 -16 0 -6 -9 -11 -20
-11 -11 0 -20 7 -20 15 0 10 -10 15 -30 15 -20 0 -30 5 -30 15 0 10 10 15 30
15 19 0 30 -5 30 -14z m-620 -46 c0 -20 -5 -30 -15 -30 -10 0 -15 10 -15 30 0
20 5 30 15 30 10 0 15 -10 15 -30z m1340 -56 l0 -44 -45 0 -45 0 0 44 c0 39 3
45 23 48 12 2 32 2 45 0 19 -4 22 -11 22 -48z m-1440 1 l0 -45 -50 0 -50 0 0
45 0 45 50 0 50 0 0 -45z m660 0 l0 -45 -50 0 -50 0 0 45 0 45 50 0 50 0 0
-45z m60 35 c0 -5 -7 -10 -15 -10 -8 0 -15 5 -15 10 0 6 7 10 15 10 8 0 15 -4
15 -10z m860 0 c0 -5 -9 -10 -20 -10 -11 0 -20 5 -20 10 0 6 9 10 20 10 11 0
20 -4 20 -10z m260 1 c0 -12 -27 -17 -67 -13 -51 6 -39 22 17 22 28 0 50 -4
50 -9z m-1350 -52 c0 -19 -5 -29 -15 -29 -8 0 -15 7 -15 15 0 8 -7 15 -15 15
-14 0 -21 21 -10 32 3 3 17 3 30 0 20 -3 25 -10 25 -33z m-422 19 c-3 -7 -11
-13 -18 -13 -7 0 -15 6 -17 13 -3 7 4 12 17 12 13 0 20 -5 18 -12z m692 -18
c0 -27 3 -30 30 -30 28 0 30 -3 30 -35 0 -19 -3 -35 -6 -35 -10 0 -54 50 -54
61 0 5 -9 9 -20 9 -16 0 -20 7 -20 30 0 23 4 30 20 30 16 0 20 -7 20 -30z m60
15 c0 -8 -7 -15 -15 -15 -8 0 -15 7 -15 15 0 8 7 15 15 15 8 0 15 -7 15 -15z
m230 -160 c0 -8 7 -15 15 -15 8 0 15 -7 15 -15 0 -10 -10 -15 -30 -15 -27 0
-30 3 -30 30 0 20 5 30 15 30 8 0 15 -7 15 -15z m-460 -70 c0 -8 7 -15 15 -15
8 0 15 -7 15 -15 0 -8 -7 -15 -15 -15 -9 0 -15 -9 -15 -21 0 -24 -23 -21 -28
4 -2 10 3 17 12 17 9 0 16 7 16 15 0 8 -7 15 -15 15 -8 0 -15 7 -15 15 0 8 7
15 15 15 8 0 15 -7 15 -15z m70 -129 c0 -11 14 -16 48 -18 43 -3 47 -5 50 -31
3 -22 -1 -30 -17 -34 -12 -3 -21 -12 -21 -19 0 -8 -7 -14 -15 -14 -8 0 -15 -7
-15 -15 0 -8 -7 -15 -15 -15 -8 0 -15 7 -15 15 0 8 -9 15 -20 15 -11 0 -20 -7
-20 -15 0 -8 -7 -15 -15 -15 -8 0 -15 7 -15 15 0 8 -7 15 -15 15 -8 0 -15 7
-15 15 0 10 10 15 30 15 20 0 30 5 30 15 0 8 9 15 20 15 16 0 20 -7 20 -30 0
-20 5 -30 15 -30 8 0 15 7 15 15 0 8 7 15 15 15 8 0 15 9 15 20 0 16 -7 20
-30 20 -20 0 -30 5 -30 15 0 19 -26 20 -37 1 -8 -14 -25 -20 -50 -17 -7 0 -13
14 -13 31 0 29 1 30 50 30 37 0 50 -4 50 -14z m520 -1 c0 -8 -7 -15 -15 -15
-10 0 -15 -11 -15 -35 0 -33 -2 -35 -35 -35 -33 0 -35 2 -35 35 0 33 2 35 35
35 24 0 35 5 35 15 0 8 7 15 15 15 8 0 15 -7 15 -15z m40 -71 c0 -9 11 -14 30
-14 20 0 30 5 30 15 0 10 11 15 35 15 32 0 35 -2 35 -30 0 -23 -4 -30 -20 -30
-16 0 -20 -7 -20 -35 0 -24 -5 -35 -15 -35 -10 0 -15 -10 -15 -30 0 -19 -5
-30 -14 -30 -9 0 -16 -12 -18 -32 -3 -29 -7 -33 -35 -36 -29 -3 -33 -7 -33
-31 0 -20 6 -30 20 -34 14 -3 20 -14 20 -32 0 -18 -6 -29 -20 -32 -11 -3 -20
-12 -20 -19 0 -11 16 -14 65 -14 67 0 81 -11 48 -35 -22 -16 -8 -35 28 -35 22
0 29 5 29 20 0 16 7 20 30 20 23 0 30 -4 30 -20 0 -15 -7 -20 -29 -20 -16 0
-31 -6 -35 -15 -3 -8 -12 -15 -21 -15 -8 0 -15 -7 -15 -15 0 -10 -10 -15 -30
-15 -27 0 -30 3 -30 30 0 32 -23 42 -34 15 -3 -8 -12 -15 -21 -15 -22 0 -18
-27 5 -33 23 -6 17 -37 -6 -37 -8 0 -14 -7 -14 -15 0 -8 -7 -15 -15 -15 -8 0
-15 7 -15 15 0 8 -7 15 -15 15 -8 0 -15 7 -15 16 0 9 -9 18 -20 21 -23 6 -27
33 -5 33 9 0 18 7 21 15 4 9 19 15 35 15 22 0 29 5 29 20 0 11 -7 20 -15 20
-11 0 -15 12 -15 45 0 33 4 45 15 45 8 0 15 9 15 20 0 11 -7 20 -15 20 -11 0
-15 12 -15 50 0 38 -4 50 -15 50 -8 0 -15 7 -15 15 0 10 -11 15 -35 15 -32 0
-35 2 -35 30 0 33 16 39 35 13 7 -9 17 -13 23 -9 19 11 14 26 -8 26 -13 0 -20
7 -20 20 0 16 7 20 34 20 25 0 35 -5 39 -20 4 -15 14 -20 36 -20 22 0 31 -5
31 -16 0 -9 5 -14 12 -12 18 6 21 28 4 28 -9 0 -16 8 -16 20 0 11 7 20 15 20
8 0 15 7 15 15 0 10 -11 15 -35 15 -32 0 -35 3 -35 28 0 16 3 31 6 35 10 9 34
-4 34 -19z m-826 1 c3 -8 12 -15 21 -15 8 0 15 -7 15 -15 0 -8 7 -15 15 -15 8
0 15 -7 15 -15 0 -8 7 -15 15 -15 8 0 15 -9 15 -21 0 -18 -5 -20 -47 -17 -36
2 -49 7 -51 21 -2 12 3 17 17 17 12 0 21 6 21 15 0 8 -7 15 -15 15 -9 0 -18
-7 -21 -15 -4 -9 -19 -15 -35 -15 -19 0 -29 5 -29 15 0 8 -7 15 -15 15 -8 0
-15 7 -15 15 0 8 7 15 15 15 8 0 15 7 15 15 0 10 10 15 29 15 16 0 31 -6 35
-15z m916 -275 c0 -20 -5 -30 -15 -30 -8 0 -15 -9 -15 -20 0 -11 7 -20 15 -20
8 0 15 -7 15 -15 0 -21 -8 -19 -36 8 -27 25 -31 47 -9 47 10 0 15 10 15 30 0
20 5 30 15 30 10 0 15 -10 15 -30z m-1440 -65 c0 -24 -5 -35 -15 -35 -10 0
-15 11 -15 35 0 24 5 35 15 35 10 0 15 -11 15 -35z m130 -15 l0 -50 -50 0 -50
0 0 50 0 50 50 0 50 0 0 -50z m200 15 c0 -33 -2 -35 -35 -35 -39 0 -50 24 -15
33 11 3 20 12 20 21 0 9 7 16 15 16 10 0 15 -11 15 -35z m460 -15 l0 -50 -50
0 -50 0 0 50 0 50 50 0 50 0 0 -50z m455 15 c0 -20 -5 -31 -17 -33 -11 -2 -18
3 -18 12 0 9 -7 16 -15 16 -8 0 -15 -3 -15 -6 0 -12 45 -54 58 -54 6 0 12 -7
12 -15 0 -10 -11 -15 -35 -15 l-35 0 0 -50 c0 -38 4 -50 15 -50 8 0 15 -7 15
-16 0 -9 9 -18 20 -21 11 -3 20 -12 20 -19 0 -8 7 -14 15 -14 8 0 15 -7 15
-15 0 -8 7 -15 15 -15 10 0 15 -11 15 -35 0 -28 4 -35 20 -35 11 0 20 -5 20
-11 0 -6 -9 -13 -20 -16 -35 -9 -24 -33 15 -33 l35 0 0 50 c0 38 -4 50 -15 50
-10 0 -15 10 -15 30 0 20 5 30 15 30 8 0 15 -7 15 -15 0 -8 7 -15 15 -15 8 0
15 -7 15 -15 0 -8 7 -15 15 -15 8 0 15 -9 15 -20 0 -11 -7 -20 -15 -20 -10 0
-15 -10 -15 -30 0 -20 -5 -30 -15 -30 -8 0 -15 -6 -15 -14 0 -8 -7 -16 -15
-20 -27 -10 -17 -36 14 -36 21 0 30 6 34 21 3 12 10 18 16 14 23 -14 51 6 51
36 0 26 3 29 30 29 20 0 30 -5 30 -15 0 -8 7 -15 15 -15 10 0 15 -11 15 -35 0
-32 -2 -35 -30 -35 -23 0 -30 4 -30 20 0 11 -7 20 -15 20 -11 0 -15 -12 -15
-49 0 -40 -3 -50 -20 -54 -15 -4 -20 -14 -20 -36 0 -28 -3 -31 -30 -31 -20 0
-30 5 -30 15 0 8 -7 15 -15 15 -8 0 -15 9 -15 20 0 11 7 20 15 20 8 0 15 7 15
15 0 11 -12 15 -50 15 -38 0 -50 4 -50 15 0 8 -7 15 -15 15 -8 0 -15 7 -15 15
0 8 7 15 15 15 8 0 15 -7 15 -15 0 -8 7 -15 15 -15 10 0 15 11 15 35 0 32 -2
35 -30 35 -20 0 -30 -5 -30 -15 0 -8 -9 -15 -20 -15 -19 0 -21 5 -18 63 2 47
7 62 18 62 10 0 16 -12 18 -32 3 -29 7 -33 33 -33 31 0 41 23 14 34 -9 3 -15
18 -15 36 0 29 -1 30 -50 30 l-50 0 0 -35 c0 -24 -5 -35 -15 -35 -8 0 -15 -7
-15 -15 0 -8 7 -15 15 -15 8 0 15 -7 15 -15 0 -8 -7 -15 -15 -15 -8 0 -15 7
-15 15 0 8 -6 15 -14 15 -8 0 -16 -7 -20 -15 -3 -8 -12 -15 -21 -15 -8 0 -15
-7 -15 -15 0 -8 -7 -15 -15 -15 -8 0 -15 7 -15 15 0 8 -7 15 -15 15 -11 0 -15
-12 -15 -51 0 -43 -3 -50 -17 -47 -15 3 -19 16 -21 66 l-3 62 36 0 c24 0 35
-4 35 -15 0 -8 7 -15 15 -15 8 0 15 7 15 15 0 8 9 15 20 15 11 0 20 6 20 14 0
7 -9 16 -20 19 -11 3 -20 12 -20 21 0 12 10 16 35 16 24 0 35 5 35 15 0 8 -7
15 -15 15 -8 0 -15 7 -15 15 0 10 10 15 30 15 19 0 30 5 30 14 0 11 -14 16
-47 18 -36 2 -49 7 -51 21 -2 10 3 17 13 17 8 0 18 7 21 15 4 8 12 15 20 15 8
0 14 7 14 15 0 8 -7 15 -15 15 -8 0 -15 -7 -15 -15 0 -10 -11 -15 -35 -15 -24
0 -35 -5 -35 -15 0 -8 -7 -15 -15 -15 -8 0 -15 -9 -15 -20 0 -11 7 -20 15 -20
10 0 15 -10 15 -30 0 -20 -5 -30 -15 -30 -10 0 -15 10 -15 30 0 23 -4 30 -20
30 -12 0 -20 7 -20 16 0 9 9 18 20 21 11 3 20 11 20 18 0 7 -9 15 -20 18 -14
3 -20 14 -20 32 0 18 6 29 20 32 14 4 20 14 20 34 0 19 5 29 15 29 10 0 15
-10 15 -30 0 -20 -5 -30 -15 -30 -8 0 -15 -9 -15 -20 0 -16 7 -20 30 -20 17 0
30 5 30 11 0 14 47 59 61 59 5 0 9 14 9 30 0 20 -5 30 -15 30 -8 0 -15 9 -15
20 0 19 5 21 63 18 62 -3 62 -3 62 -33z m325 -15 l0 -50 -45 0 -45 0 0 50 0
50 45 0 45 0 0 -50z m-1140 -5 c0 -8 7 -15 15 -15 8 0 15 -7 15 -16 0 -11 -8
-14 -32 -12 -28 2 -34 8 -36 31 -3 22 1 27 17 27 12 0 21 -7 21 -15z m690 -15
c0 -23 -4 -30 -20 -30 -16 0 -20 7 -20 30 0 23 4 30 20 30 16 0 20 -7 20 -30z
m-1120 -45 c0 -8 -6 -15 -14 -15 -7 0 -16 -9 -19 -20 -3 -11 -12 -20 -21 -20
-23 0 -20 31 4 37 11 3 20 12 20 19 0 8 7 14 15 14 8 0 15 -7 15 -15z m200 0
c0 -8 7 -15 15 -15 8 0 15 -9 15 -20 0 -11 7 -20 15 -20 8 0 15 -7 15 -15 0
-10 11 -15 35 -15 24 0 35 -5 35 -15 0 -8 -6 -15 -14 -15 -7 0 -16 -9 -19 -20
-4 -15 -14 -20 -36 -20 -21 0 -31 -5 -31 -15 0 -8 -7 -15 -15 -15 -8 0 -15 -7
-15 -15 0 -8 7 -15 15 -15 8 0 15 -7 15 -15 0 -11 12 -15 50 -15 43 0 50 -3
50 -20 0 -17 -7 -20 -50 -20 l-50 0 0 -65 c0 -51 3 -65 15 -65 8 0 15 -7 15
-15 0 -8 7 -15 15 -15 9 0 18 7 21 15 11 27 34 17 34 -15 0 -20 5 -30 15 -30
8 0 15 -9 15 -20 0 -11 7 -20 15 -20 8 0 15 -7 15 -15 0 -8 7 -15 15 -15 9 0
18 7 21 15 4 8 12 15 20 15 8 0 14 9 14 20 0 11 7 20 15 20 8 0 15 -9 15 -20
0 -11 -7 -20 -15 -20 -10 0 -15 -10 -15 -30 0 -20 5 -30 15 -30 11 0 15 -12
15 -50 0 -49 -1 -50 -30 -50 -19 0 -30 5 -30 14 0 7 -9 16 -20 19 -11 3 -20
10 -20 15 0 5 9 12 20 15 11 3 20 12 20 21 0 9 -8 16 -20 16 -11 0 -20 7 -20
15 0 8 -7 15 -15 15 -10 0 -15 -11 -15 -35 0 -31 -3 -35 -26 -35 -17 0 -28 6
-31 20 -3 11 -14 20 -24 20 -11 0 -19 7 -19 15 0 10 -10 15 -30 15 -21 0 -30
-5 -30 -16 0 -9 -7 -14 -17 -12 -25 5 -28 28 -4 28 27 0 27 26 1 33 -26 7 -26
27 0 34 11 3 20 11 20 18 0 7 -9 15 -20 18 -13 3 -20 14 -20 30 0 16 7 26 20
30 11 3 20 12 20 21 0 12 -10 16 -35 16 -24 0 -35 5 -35 15 0 11 -12 15 -50
15 -38 0 -50 4 -50 15 0 8 -7 15 -15 15 -8 0 -15 9 -15 20 0 11 7 20 15 20 8
0 15 7 15 15 0 8 -7 15 -15 15 -10 0 -15 10 -15 30 0 29 1 30 50 30 38 0 50
-4 50 -15 0 -8 -7 -15 -15 -15 -8 0 -15 -7 -15 -15 0 -8 7 -15 15 -15 8 0 15
-7 15 -15 0 -10 -11 -15 -35 -15 -28 0 -35 -4 -35 -20 0 -17 7 -20 50 -20 l50
0 0 35 c0 24 5 35 15 35 8 0 15 7 15 15 0 8 9 15 20 15 11 0 20 7 20 15 0 8
-7 15 -16 15 -9 0 -18 9 -21 20 -3 11 -12 20 -19 20 -8 0 -14 7 -14 15 0 11
12 15 50 15 38 0 50 -4 50 -15 0 -8 -7 -15 -15 -15 -8 0 -15 -9 -15 -20 0 -11
7 -20 15 -20 8 0 15 9 15 20 0 11 7 20 15 20 8 0 15 7 15 15 0 8 -7 15 -15 15
-8 0 -15 6 -15 14 0 9 -12 16 -32 18 -29 3 -33 7 -36 36 -3 27 0 32 17 32 12
0 21 -7 21 -15z m-70 -35 c0 -17 -7 -20 -44 -20 -25 0 -48 5 -51 10 -12 19 6
30 51 30 37 0 44 -3 44 -20z m-30 -65 c0 -11 -12 -15 -50 -15 -38 0 -50 4 -50
15 0 11 12 15 50 15 38 0 50 -4 50 -15z m390 -20 c0 -24 5 -35 15 -35 9 0 15
-10 15 -26 0 -17 6 -28 20 -31 11 -3 20 -12 20 -19 0 -8 7 -14 15 -14 10 0 15
-11 15 -35 0 -24 -5 -35 -15 -35 -8 0 -15 -6 -15 -14 0 -7 -9 -16 -20 -19 -11
-3 -20 -10 -20 -15 0 -6 9 -14 20 -17 11 -3 20 -13 20 -21 0 -8 7 -14 15 -14
8 0 15 -7 15 -15 0 -8 -7 -15 -15 -15 -8 0 -15 -7 -15 -15 0 -8 -7 -15 -15
-15 -9 0 -18 7 -21 15 -4 9 -19 15 -35 15 -19 0 -29 5 -29 15 0 8 -7 15 -15
15 -12 0 -15 18 -15 100 0 82 3 100 15 100 8 0 15 -7 15 -15 0 -8 7 -15 15
-15 8 0 15 7 15 15 0 8 -7 15 -15 15 -8 0 -15 7 -15 15 0 8 7 15 15 15 8 0 15
7 15 15 0 8 -7 15 -15 15 -8 0 -15 -7 -15 -16 0 -11 -8 -14 -32 -12 -46 4 -49
28 -4 28 29 0 36 4 36 20 0 11 -7 20 -15 20 -8 0 -15 7 -15 15 0 10 10 15 30
15 28 0 30 -3 30 -35z m168 -48 c2 -33 7 -47 18 -47 7 0 14 -7 14 -15 0 -10
10 -15 30 -15 20 0 30 5 30 15 0 8 -7 15 -15 15 -8 0 -15 7 -15 15 0 10 11 15
35 15 24 0 35 -5 35 -15 0 -8 7 -15 15 -15 8 0 15 -7 15 -15 0 -8 -7 -15 -15
-15 -8 0 -15 -9 -15 -20 0 -16 -7 -20 -35 -20 -24 0 -35 -5 -35 -15 0 -8 -7
-15 -15 -15 -10 0 -15 11 -15 35 0 33 -2 35 -35 35 -24 0 -35 5 -35 15 0 10
-10 15 -30 15 -20 0 -30 5 -30 15 0 8 7 15 15 15 8 0 15 7 15 15 0 8 7 15 15
15 9 0 15 9 15 21 0 14 5 19 18 17 13 -2 18 -15 20 -51z m292 38 c0 -9 7 -18
15 -21 8 -4 15 -12 15 -20 0 -8 -7 -14 -15 -14 -8 0 -15 -7 -15 -15 0 -8 -7
-15 -15 -15 -11 0 -15 -12 -15 -50 0 -38 4 -50 15 -50 8 0 15 -7 15 -15 0 -8
-7 -15 -15 -15 -8 0 -15 -7 -15 -15 0 -9 7 -18 15 -21 10 -4 15 -20 15 -50 0
-32 4 -44 15 -44 10 0 15 -11 15 -35 0 -32 -2 -35 -30 -35 -20 0 -30 -5 -30
-15 0 -11 12 -15 49 -15 40 0 50 -3 54 -20 8 -33 27 -23 27 15 0 24 5 35 15
35 8 0 15 -6 15 -14 0 -7 9 -16 20 -19 23 -6 17 -37 -6 -37 -8 0 -14 -7 -14
-15 0 -8 -7 -15 -15 -15 -8 0 -15 -7 -15 -15 0 -8 7 -15 15 -15 8 0 15 -7 15
-15 0 -10 -10 -15 -30 -15 -23 0 -30 -4 -30 -20 0 -11 7 -20 15 -20 10 0 15
-10 15 -30 0 -20 -5 -30 -15 -30 -8 0 -15 7 -15 15 0 8 -9 15 -20 15 -11 0
-20 -7 -20 -15 0 -8 -7 -15 -15 -15 -8 0 -15 -7 -15 -15 0 -8 -7 -15 -15 -15
-8 0 -15 7 -15 15 0 11 -12 15 -50 15 -49 0 -50 1 -50 30 0 32 23 42 34 15 4
-11 21 -15 66 -15 l60 0 0 35 c0 35 0 35 -44 35 -35 0 -45 -4 -49 -20 -7 -26
-37 -26 -37 0 0 11 -7 20 -15 20 -8 0 -15 7 -15 15 0 8 7 15 15 15 8 0 15 7
15 15 0 8 9 15 20 15 11 0 20 -7 20 -15 0 -11 12 -15 45 -15 33 0 45 4 45 15
0 8 -7 15 -15 15 -8 0 -15 6 -15 14 0 8 -7 16 -15 20 -8 3 -15 12 -15 21 0 8
-7 15 -15 15 -8 0 -15 7 -15 15 0 8 7 15 15 15 10 0 15 11 15 35 0 24 -5 35
-15 35 -8 0 -15 7 -15 15 0 8 7 15 15 15 30 0 15 29 -17 32 -37 4 -48 23 -17
31 24 6 21 30 -4 35 -10 2 -17 -3 -17 -12 0 -11 -9 -16 -30 -16 -29 0 -30 2
-30 45 0 33 4 45 15 45 8 0 15 9 15 20 0 11 7 20 15 20 10 0 15 10 15 30 0 28
3 30 35 30 33 0 35 2 35 35 0 24 5 35 15 35 8 0 15 -7 15 -15z m-590 -55 c0
-20 5 -30 15 -30 11 0 15 -11 15 -36 0 -45 -24 -42 -28 4 -2 20 -9 32 -18 32
-9 0 -14 11 -14 30 0 20 5 30 15 30 10 0 15 -10 15 -30z m-62 -12 c-7 -19 -38
-22 -38 -4 0 10 9 16 21 16 12 0 19 -5 17 -12z m718 -59 c10 -17 -13 -36 -27
-22 -12 12 -4 33 11 33 5 0 12 -5 16 -11z m494 -10 c0 -24 -23 -21 -28 4 -2
10 3 17 12 17 10 0 16 -9 16 -21z m-850 -34 c0 -8 7 -15 15 -15 8 0 15 -7 15
-15 0 -8 7 -15 15 -15 8 0 15 -7 15 -15 0 -9 -9 -15 -25 -15 -14 0 -29 -8 -35
-20 -7 -13 -21 -20 -40 -20 -23 0 -30 4 -30 20 0 11 -7 20 -15 20 -8 0 -15 7
-15 15 0 8 7 15 15 15 8 0 15 7 15 15 0 8 7 15 15 15 8 0 15 7 15 15 0 8 9 15
20 15 11 0 20 -7 20 -15z m-330 -44 c0 -22 -5 -30 -23 -33 -35 -7 -47 1 -47
33 0 27 3 29 35 29 32 0 35 -3 35 -29z m60 -1 c0 -20 -5 -30 -15 -30 -10 0
-15 10 -15 30 0 20 5 30 15 30 10 0 15 -10 15 -30z m820 -55 c0 -8 -7 -15 -15
-15 -8 0 -15 -7 -15 -15 0 -8 -7 -15 -15 -15 -8 0 -15 -7 -15 -15 0 -8 7 -15
15 -15 8 0 15 7 15 15 0 11 11 15 36 15 34 0 35 -1 32 -32 -3 -29 -7 -33 -35
-36 -47 -5 -44 -32 2 -32 24 0 35 -5 35 -15 0 -10 -11 -15 -35 -15 -33 0 -35
-2 -35 -35 0 -24 -5 -35 -15 -35 -11 0 -15 12 -15 50 l0 50 -35 0 c-24 0 -35
5 -35 15 0 10 -10 15 -30 15 -23 0 -30 4 -30 20 0 11 7 20 15 20 8 0 15 6 15
14 0 9 12 16 33 18 27 2 33 8 35 31 3 25 7 27 48 27 32 0 44 -4 44 -15z m-816
-30 c3 -8 12 -15 21 -15 11 0 15 -10 15 -35 0 -28 -4 -35 -20 -35 -13 0 -20 7
-20 20 0 11 -7 20 -15 20 -10 0 -15 10 -15 30 0 32 23 42 34 15z m356 0 c0 -8
-7 -15 -15 -15 -8 0 -15 7 -15 15 0 8 7 15 15 15 8 0 15 -7 15 -15z m-780 -30
c0 -8 -7 -15 -16 -15 -9 0 -18 -9 -21 -20 -9 -35 -33 -24 -33 15 0 33 2 35 35
35 24 0 35 -5 35 -15z m720 0 c0 -11 12 -15 50 -15 38 0 50 4 50 15 0 10 10
15 30 15 28 0 30 -3 30 -35 0 -24 -5 -35 -15 -35 -8 0 -15 -7 -15 -15 0 -8 7
-15 15 -15 8 0 15 -7 15 -15 0 -10 -10 -15 -30 -15 -27 0 -30 3 -30 30 0 28
-3 30 -35 30 -24 0 -35 -5 -35 -15 0 -10 -10 -15 -30 -15 -28 0 -30 -3 -30
-35 0 -24 5 -35 15 -35 8 0 15 -7 15 -15 0 -8 -7 -15 -15 -15 -8 0 -15 7 -15
15 0 12 -13 15 -60 15 -49 0 -62 4 -72 20 -7 11 -18 20 -25 20 -7 0 -13 7 -13
15 0 8 7 15 15 15 8 0 15 7 15 15 0 8 9 15 20 15 11 0 20 -7 20 -15 0 -8 7
-15 15 -15 11 0 15 12 15 50 l0 50 50 0 c38 0 50 -4 50 -15z m60 -129 c0 -15
21 -26 51 -26 10 0 19 -7 19 -15 0 -11 -12 -15 -50 -15 l-50 0 0 35 c0 24 5
35 15 35 8 0 15 -6 15 -14z m760 -7 c0 -24 -23 -21 -28 4 -2 10 3 17 12 17 10
0 16 -9 16 -21z m328 -11 c-3 -29 -7 -33 -35 -36 -33 -3 -49 -32 -18 -32 8 0
15 -7 15 -15 0 -11 -12 -15 -45 -15 -38 0 -45 -3 -45 -20 0 -13 -7 -20 -20
-20 -11 0 -20 -7 -20 -15 0 -10 -10 -15 -30 -15 -20 0 -30 5 -30 15 0 10 10
15 30 15 23 0 30 4 30 20 0 16 -7 20 -30 20 -27 0 -30 3 -30 30 0 20 5 30 15
30 8 0 15 -7 15 -15 0 -8 7 -15 15 -15 8 0 15 -7 15 -15 0 -8 9 -15 20 -15 16
0 20 7 20 30 0 27 3 30 30 30 20 0 30 5 30 15 0 8 6 15 14 15 7 0 16 9 19 20
3 11 13 20 22 20 12 0 16 -8 13 -32z m-1278 -53 c0 -8 -9 -15 -20 -15 -11 0
-20 7 -20 15 0 8 9 15 20 15 11 0 20 -7 20 -15z m60 0 c0 -8 -7 -15 -15 -15
-8 0 -15 7 -15 15 0 8 7 15 15 15 8 0 15 -7 15 -15z m630 -35 c0 -43 -3 -50
-20 -50 -13 0 -20 7 -20 20 0 11 -7 20 -15 20 -8 0 -15 -9 -15 -20 0 -11 6
-20 14 -20 8 0 16 -7 20 -15 3 -8 12 -15 21 -15 8 0 15 -7 15 -15 0 -8 -9 -15
-20 -15 -11 0 -20 -7 -20 -15 0 -10 -10 -15 -30 -15 -27 0 -30 3 -30 30 0 32
-23 42 -34 15 -3 -8 -12 -15 -21 -15 -8 0 -15 7 -15 15 0 8 9 15 20 15 11 0
20 7 20 15 0 8 7 15 15 15 8 0 15 9 15 20 0 11 -7 20 -15 20 -8 0 -15 7 -15
15 0 11 12 15 45 15 33 0 45 4 45 15 0 8 9 15 20 15 17 0 20 -7 20 -50z m690
35 c0 -8 7 -15 15 -15 8 0 15 -7 15 -15 0 -8 7 -15 15 -15 10 0 15 10 15 30 0
20 5 30 15 30 10 0 15 -10 15 -30 0 -20 -5 -30 -15 -30 -10 0 -15 -11 -15 -35
0 -24 -5 -35 -15 -35 -8 0 -15 7 -15 15 0 10 -11 15 -35 15 -28 0 -35 4 -35
20 0 16 -7 20 -30 20 -20 0 -30 5 -30 15 0 8 7 15 15 15 8 0 15 7 15 15 0 10
11 15 35 15 24 0 35 -5 35 -15z m-1416 -30 c4 -10 20 -15 51 -15 38 0 45 -3
45 -20 0 -11 -7 -20 -15 -20 -8 0 -15 -7 -15 -15 0 -8 -7 -15 -15 -15 -8 0
-15 -7 -15 -15 0 -8 -5 -15 -11 -15 -15 0 -59 -42 -59 -57 0 -8 -13 -13 -30
-13 -28 0 -30 3 -30 35 0 24 5 35 15 35 8 0 15 7 15 15 0 10 10 15 30 15 20 0
30 5 30 15 0 8 -7 15 -15 15 -10 0 -15 11 -15 35 0 36 22 50 34 20z m264 -32
l-3 -48 -47 -3 -48 -3 0 50 0 51 51 0 50 0 -3 -47z m782 -3 l0 -50 -45 0 -45
0 0 50 0 50 45 0 45 0 0 -50z m660 35 c0 -8 -7 -15 -15 -15 -8 0 -15 7 -15 15
0 8 7 15 15 15 8 0 15 -7 15 -15z m130 -36 l0 -50 -47 3 -48 3 -3 48 -3 47 50
0 51 0 0 -51z m-290 -35 c0 -9 -7 -14 -17 -12 -25 5 -28 28 -4 28 12 0 21 -6
21 -16z m-1280 -59 c0 -8 7 -15 15 -15 8 0 15 -9 15 -20 0 -11 7 -20 15 -20 8
0 15 -7 15 -15 0 -8 -7 -15 -15 -15 -8 0 -15 7 -15 15 0 10 -11 15 -35 15 -24
0 -35 -5 -35 -15 0 -10 -10 -15 -30 -15 -28 0 -30 3 -30 35 0 24 5 35 15 35 8
0 15 7 15 15 0 10 11 15 35 15 24 0 35 -5 35 -15z"/>
<path d="M640 2775 c0 -8 7 -15 15 -15 8 0 15 7 15 15 0 8 -7 15 -15 15 -8 0
-15 -7 -15 -15z"/>
<path d="M772 2758 c4 -46 28 -49 28 -4 0 26 -4 36 -16 36 -11 0 -14 -8 -12
-32z"/>
<path d="M1420 2790 c0 -23 4 -30 20 -30 16 0 20 7 20 30 0 23 -4 30 -20 30
-16 0 -20 -7 -20 -30z"/>
<path d="M1160 2775 c0 -8 7 -15 15 -15 8 0 15 7 15 15 0 8 -7 15 -15 15 -8 0
-15 -7 -15 -15z"/>
<path d="M1950 2775 c0 -8 7 -15 15 -15 8 0 15 7 15 15 0 8 -7 15 -15 15 -8 0
-15 -7 -15 -15z"/>
<path d="M1697 2493 c-4 -3 -7 -19 -7 -35 0 -18 -5 -28 -15 -28 -9 0 -18 -7
-21 -15 -4 -8 -12 -15 -20 -15 -8 0 -14 7 -14 15 0 8 -7 15 -15 15 -8 0 -15
-6 -15 -12 0 -22 47 -58 75 -58 38 0 27 -24 -13 -28 -19 -2 -32 -9 -32 -17 0
-8 13 -15 32 -17 43 -4 48 -26 6 -30 -34 -3 -56 -38 -24 -38 9 0 16 -6 16 -14
0 -7 9 -16 20 -19 11 -3 20 -10 20 -16 0 -6 -9 -11 -20 -11 -11 0 -20 7 -20
15 0 8 -7 15 -15 15 -8 0 -15 -5 -15 -12 0 -20 51 -58 77 -58 22 0 23 3 23 80
0 62 3 82 15 86 8 4 15 12 15 20 0 8 -7 14 -15 14 -11 0 -15 12 -15 50 0 38 4
50 15 50 8 0 15 6 15 14 0 8 -7 16 -15 20 -8 3 -15 12 -15 21 0 16 -12 20 -23
8z"/>
<path d="M1790 2416 c0 -7 -9 -16 -20 -19 -15 -4 -20 -14 -20 -36 0 -24 4 -31
20 -31 11 0 20 6 20 14 0 8 7 16 15 20 9 3 15 18 15 36 0 20 -5 30 -15 30 -8
0 -15 -6 -15 -14z"/>
<path d="M1752 2283 c2 -10 10 -18 18 -18 8 0 16 8 18 18 2 12 -3 17 -18 17
-15 0 -20 -5 -18 -17z"/>
<path d="M1750 2199 c0 -22 5 -32 20 -36 11 -3 20 -9 20 -13 0 -4 -9 -10 -20
-13 -15 -4 -20 -14 -20 -36 0 -31 1 -31 50 -31 l50 0 0 35 c0 24 -5 35 -15 35
-8 0 -15 5 -15 10 0 6 7 10 15 10 8 0 15 9 15 20 0 11 -7 20 -15 20 -8 0 -15
7 -15 15 0 10 -11 15 -35 15 -32 0 -35 -2 -35 -31z m70 -14 c0 -8 -7 -15 -15
-15 -8 0 -15 7 -15 15 0 8 7 15 15 15 8 0 15 -7 15 -15z"/>
<path d="M1136 2263 c-12 -12 -6 -33 9 -33 8 0 15 6 15 14 0 17 -14 28 -24 19z"/>
<path d="M1957 2133 c-13 -12 -7 -33 8 -33 8 0 15 9 15 20 0 20 -11 26 -23 13z"/>
<path d="M510 2115 c0 -8 7 -15 15 -15 8 0 15 7 15 15 0 8 -7 15 -15 15 -8 0
-15 -7 -15 -15z"/>
<path d="M1167 2133 c-13 -12 -7 -33 8 -33 8 0 15 9 15 20 0 20 -11 26 -23 13z"/>
<path d="M1720 1525 c0 -8 7 -15 15 -15 8 0 15 -7 15 -15 0 -17 26 -20 35 -4
4 6 -2 13 -14 16 -12 3 -21 12 -21 19 0 8 -7 14 -15 14 -8 0 -15 -7 -15 -15z"/>
<path d="M900 1655 c0 -8 7 -15 15 -15 8 0 15 7 15 15 0 8 -7 15 -15 15 -8 0
-15 -7 -15 -15z"/>
<path d="M510 1325 c0 -8 7 -15 15 -15 8 0 15 7 15 15 0 8 -7 15 -15 15 -8 0
-15 -7 -15 -15z"/>
<path d="M1162 1328 c6 -18 28 -21 28 -4 0 9 -7 16 -16 16 -9 0 -14 -5 -12
-12z"/>
<path d="M1952 1328 c6 -18 28 -21 28 -4 0 9 -7 16 -16 16 -9 0 -14 -5 -12
-12z"/>
<path d="M600 1015 c0 -24 -5 -35 -15 -35 -8 0 -15 -7 -15 -15 0 -10 10 -15
30 -15 18 0 33 6 36 15 4 8 12 15 20 15 8 0 14 9 14 20 0 11 -7 20 -15 20 -8
0 -15 7 -15 15 0 8 -9 15 -20 15 -16 0 -20 -7 -20 -35z"/>
<path d="M670 785 c0 -24 5 -35 15 -35 8 0 15 -7 15 -15 0 -8 9 -15 20 -15 11
0 20 -7 20 -15 0 -8 7 -15 15 -15 8 0 15 7 15 15 0 8 7 15 15 15 8 0 15 7 15
15 0 8 -7 15 -15 15 -8 0 -15 9 -15 20 0 16 -7 20 -35 20 -24 0 -35 5 -35 15
0 8 -7 15 -15 15 -10 0 -15 -11 -15 -35z"/>
<path d="M900 885 c0 -24 5 -35 15 -35 10 0 15 11 15 35 0 24 -5 35 -15 35
-10 0 -15 -11 -15 -35z"/>
<path d="M960 835 c0 -8 9 -15 20 -15 11 0 20 7 20 15 0 8 -9 15 -20 15 -11 0
-20 -7 -20 -15z"/>
<path d="M1260 964 c0 -11 8 -14 32 -12 46 4 49 28 4 28 -26 0 -36 -4 -36 -16z"/>
<path d="M1290 575 c0 -8 9 -15 20 -15 11 0 20 7 20 15 0 8 -9 15 -20 15 -11
0 -20 -7 -20 -15z"/>
<path d="M1100 770 c0 -11 7 -20 15 -20 8 0 15 9 15 20 0 11 -7 20 -15 20 -8
0 -15 -9 -15 -20z"/>
<path d="M1160 540 c0 -11 7 -20 15 -20 8 0 15 9 15 20 0 11 -7 20 -15 20 -8
0 -15 -9 -15 -20z"/>
<path d="M1950 540 c0 -11 7 -20 15 -20 8 0 15 9 15 20 0 11 -7 20 -15 20 -8
0 -15 -9 -15 -20z"/>
<path d="M2740 540 c0 -11 7 -20 15 -20 8 0 15 9 15 20 0 11 -7 20 -15 20 -8
0 -15 -9 -15 -20z"/>
<path d="M1160 410 c0 -11 7 -20 15 -20 8 0 15 9 15 20 0 11 -7 20 -15 20 -8
0 -15 -9 -15 -20z"/>
<path d="M1627 2983 c-12 -11 -8 -23 8 -23 8 0 15 7 15 15 0 16 -12 20 -23 8z"/>
<path d="M2117 2984 c-13 -13 -7 -24 14 -24 11 0 19 5 17 12 -5 14 -22 21 -31
12z"/>
<path d="M2187 2983 c-12 -11 -8 -23 8 -23 11 0 15 -12 15 -50 0 -36 4 -52 15
-56 9 -4 15 -19 15 -35 0 -22 5 -29 20 -29 11 0 20 -7 20 -15 0 -8 7 -15 15
-15 8 0 15 7 15 15 0 8 7 15 15 15 8 0 15 -7 15 -15 0 -8 -7 -15 -15 -15 -8 0
-15 -7 -15 -15 0 -9 7 -18 15 -21 8 -4 15 -12 15 -20 0 -9 12 -14 35 -14 24 0
35 -5 35 -15 0 -8 7 -15 15 -15 8 0 15 6 15 14 0 9 12 16 33 18 31 3 32 5 35
51 2 37 0 47 -13 47 -8 0 -18 -7 -21 -15 -4 -8 -12 -15 -20 -15 -8 0 -14 7
-14 15 0 8 -7 15 -15 15 -8 0 -15 -7 -15 -15 0 -8 -7 -15 -15 -15 -10 0 -15
10 -15 29 0 16 6 31 15 35 19 7 20 36 1 36 -8 0 -16 7 -20 15 -11 30 -36 17
-36 -20 0 -38 -19 -48 -27 -15 -4 15 -14 20 -39 20 -29 0 -34 3 -34 24 0 13
10 30 22 38 27 18 16 38 -23 38 -19 0 -29 5 -29 15 0 16 -12 20 -23 8z"/>
<path d="M2317 2983 c-4 -3 -7 -19 -7 -35 0 -33 25 -39 33 -8 4 15 14 20 36
20 21 0 31 5 31 15 0 11 -11 15 -43 15 -24 0 -47 -3 -50 -7z"/>
<path d="M2447 2983 c-12 -11 -8 -23 8 -23 8 0 15 7 15 15 0 16 -12 20 -23 8z"/>
<path d="M2740 2875 l0 -115 115 0 116 0 -3 113 -3 112 -112 3 -113 3 0 -116z
m190 0 l0 -85 -80 0 -80 0 0 78 c0 43 3 82 7 85 3 4 39 7 80 7 l73 0 0 -85z"/>
<path d="M2802 2873 l3 -48 48 -3 47 -3 0 50 0 51 -51 0 -50 0 3 -47z"/>
<path d="M2110 2905 c0 -10 11 -15 35 -15 24 0 35 5 35 15 0 10 -11 15 -35 15
-24 0 -35 -5 -35 -15z"/>
<path d="M2412 2888 c4 -46 28 -49 28 -4 0 26 -4 36 -16 36 -11 0 -14 -8 -12
-32z"/>
<path d="M1720 2875 c0 -9 7 -18 15 -21 8 -4 15 -12 15 -20 0 -8 -7 -14 -15
-14 -8 0 -15 -7 -15 -15 0 -8 7 -15 15 -15 8 0 15 -7 15 -15 0 -8 9 -15 20
-15 17 0 20 7 20 46 0 37 -4 47 -20 51 -11 3 -20 12 -20 19 0 8 -7 14 -15 14
-8 0 -15 -7 -15 -15z"/>
<path d="M2154 2848 c-4 -6 0 -16 9 -23 21 -15 22 -35 2 -35 -8 0 -15 -7 -15
-15 0 -8 -9 -15 -20 -15 -11 0 -20 7 -20 15 0 8 -7 15 -15 15 -8 0 -15 -7 -15
-15 0 -8 7 -15 15 -15 8 0 15 -7 15 -15 0 -16 43 -31 59 -20 6 3 11 19 11 36
0 19 5 29 15 29 8 0 15 -7 15 -15 0 -8 7 -15 15 -15 8 0 15 -6 15 -14 0 -15
24 -28 34 -19 13 14 5 33 -14 33 -11 0 -20 7 -20 15 0 8 -7 15 -15 15 -10 0
-15 11 -15 35 0 30 -3 35 -24 35 -14 0 -28 -5 -32 -12z"/>
<path d="M2803 2710 c-3 -11 -12 -20 -19 -20 -8 0 -14 -7 -14 -15 0 -8 7 -15
15 -15 8 0 15 -7 15 -15 0 -7 6 -18 14 -22 8 -4 16 -19 18 -33 2 -20 9 -26 36
-28 24 -2 32 1 32 12 0 9 7 16 15 16 8 0 15 9 15 20 0 17 -7 20 -51 20 -49 0
-50 1 -47 27 3 30 38 47 38 19 0 -9 7 -16 15 -16 8 0 15 7 15 15 0 8 -6 15
-14 15 -7 0 -16 9 -19 20 -3 14 -14 20 -32 20 -18 0 -29 -6 -32 -20z"/>
<path d="M2540 2675 c0 -8 7 -15 15 -15 8 0 15 7 15 15 0 8 -7 15 -15 15 -8 0
-15 -7 -15 -15z"/>
<path d="M2670 2675 c0 -8 7 -15 15 -15 8 0 15 -6 15 -14 0 -8 9 -17 19 -21
11 -3 22 -12 25 -20 8 -22 26 -18 26 5 0 11 -7 20 -15 20 -10 0 -15 10 -15 30
0 28 -3 30 -35 30 -24 0 -35 -5 -35 -15z"/>
<path d="M770 2575 c0 -10 -11 -15 -35 -15 -24 0 -35 -5 -35 -15 0 -10 11 -15
35 -15 24 0 35 5 35 15 0 8 7 15 15 15 8 0 15 7 15 15 0 8 -7 15 -15 15 -8 0
-15 -7 -15 -15z"/>
<path d="M2770 2545 c0 -8 7 -15 15 -15 8 0 15 7 15 15 0 8 -7 15 -15 15 -8 0
-15 -7 -15 -15z"/>
<path d="M2943 2393 c-8 -3 -13 -23 -13 -49 0 -37 3 -44 20 -44 17 0 20 7 20
44 0 46 -6 57 -27 49z"/>
<path d="M2841 2361 c-21 -13 -4 -31 30 -31 22 0 29 5 29 20 0 21 -33 28 -59
11z"/>
<path d="M2805 2290 c-8 -12 34 -60 53 -60 6 0 12 -7 12 -15 0 -8 7 -15 15
-15 8 0 15 -7 15 -15 0 -8 -7 -15 -15 -15 -8 0 -15 7 -15 15 0 10 -11 15 -35
15 -24 0 -35 5 -35 15 0 10 -10 15 -30 15 -20 0 -30 -5 -30 -15 0 -10 -11 -15
-35 -15 -24 0 -35 -5 -35 -14 0 -9 -12 -16 -27 -18 -23 -2 -29 -8 -31 -35 -2
-25 -8 -33 -23 -33 -10 0 -19 -7 -19 -15 0 -8 7 -15 15 -15 9 0 18 7 21 15 4
8 12 15 20 15 8 0 14 7 14 15 0 8 7 15 15 15 8 0 15 -7 15 -15 0 -8 -7 -15
-15 -15 -8 0 -15 -7 -15 -15 0 -8 7 -15 15 -15 27 0 16 -29 -12 -32 -23 -2
-29 -8 -31 -35 -2 -25 1 -33 12 -33 11 0 16 -9 16 -30 0 -18 6 -33 15 -36 8
-4 15 -12 15 -20 0 -8 7 -14 15 -14 10 0 15 10 15 31 0 22 5 32 20 36 16 4 20
14 20 49 l0 44 44 0 c35 0 45 4 49 20 4 15 14 20 36 20 28 0 31 3 31 30 0 17
5 31 10 31 6 1 20 2 33 3 31 2 38 55 8 63 -12 3 -21 11 -21 18 0 7 -7 15 -15
19 -9 3 -15 18 -15 36 0 20 -5 30 -15 30 -8 0 -15 -7 -15 -15 0 -8 -9 -15 -20
-15 -11 0 -20 7 -20 15 0 17 -16 20 -25 5z m-5 -175 l0 -45 -50 0 -50 0 0 45
0 45 50 0 50 0 0 -45z m70 35 c0 -5 -9 -10 -20 -10 -11 0 -20 5 -20 10 0 6 9
10 20 10 11 0 20 -4 20 -10z m-170 -165 c0 -8 -7 -15 -15 -15 -8 0 -15 7 -15
15 0 8 7 15 15 15 8 0 15 -7 15 -15z"/>
<path d="M2747 2133 c-13 -12 -7 -33 8 -33 8 0 15 9 15 20 0 20 -11 26 -23 13z"/>
<path d="M2517 2263 c-13 -12 -7 -33 8 -33 8 0 15 -7 15 -15 0 -8 -7 -15 -16
-15 -11 0 -14 -8 -12 -32 4 -46 28 -49 28 -4 l0 36 50 0 c38 0 50 4 50 15 0
11 12 15 51 15 43 0 50 3 47 18 -2 12 -15 18 -46 20 -37 3 -44 0 -49 -17 -4
-18 -13 -21 -54 -21 -42 0 -49 3 -49 20 0 20 -11 26 -23 13z"/>
<path d="M312 2183 c5 -25 28 -28 28 -4 0 12 -6 21 -16 21 -9 0 -14 -7 -12
-17z"/>
<path d="M2440 2085 c0 -8 7 -15 15 -15 8 0 15 -6 15 -14 0 -23 31 -29 37 -6
3 11 12 20 19 20 8 0 14 7 14 15 0 11 -12 15 -50 15 -38 0 -50 -4 -50 -15z"/>
<path d="M2930 2085 c0 -8 -7 -15 -15 -15 -8 0 -15 -4 -15 -9 0 -6 -11 -21
-24 -35 -18 -20 -33 -26 -65 -26 -30 0 -41 -4 -41 -15 0 -8 7 -15 15 -15 8 0
15 -6 15 -14 0 -9 12 -16 32 -18 43 -4 48 -26 6 -30 -29 -3 -33 -7 -36 -35 -2
-25 1 -33 12 -33 9 0 16 -9 16 -20 0 -12 -7 -20 -16 -20 -9 0 -14 -6 -12 -12
3 -7 25 -14 51 -16 37 -2 47 0 47 12 0 9 7 16 15 16 10 0 15 -10 15 -31 0 -24
4 -30 18 -27 12 2 18 15 20 46 3 37 0 44 -17 49 -12 3 -21 12 -21 19 0 8 -7
14 -15 14 -12 0 -15 15 -15 79 l0 80 33 3 c28 3 32 7 35 36 3 27 0 32 -17 32
-12 0 -21 -7 -21 -15z"/>
<path d="M2083 2020 c-3 -11 -12 -20 -19 -20 -8 0 -14 -7 -14 -15 0 -8 -9 -15
-20 -15 -11 0 -20 7 -20 15 0 10 -10 15 -30 15 -20 0 -30 -5 -30 -15 0 -10 10
-15 30 -15 20 0 30 -5 30 -15 0 -10 10 -15 34 -15 25 0 35 -5 39 -20 3 -11 10
-20 15 -20 5 0 12 9 15 20 3 11 10 20 16 20 6 0 15 -9 21 -20 6 -12 21 -20 35
-20 16 0 25 -6 25 -15 0 -8 -7 -15 -15 -15 -8 0 -15 -6 -15 -14 0 -9 -12 -16
-32 -18 -26 -2 -34 -8 -36 -27 -5 -33 15 -51 32 -28 16 21 32 22 40 2 3 -8 17
-15 31 -15 16 0 25 -6 25 -15 0 -8 9 -15 20 -15 11 0 20 7 20 15 0 10 10 15
30 15 28 0 30 3 30 35 0 24 -5 35 -15 35 -10 0 -15 10 -15 30 0 20 5 30 15 30
10 0 15 -10 15 -30 0 -32 26 -43 36 -15 12 30 34 16 34 -20 0 -24 -5 -35 -15
-35 -8 0 -15 -7 -15 -15 0 -8 -9 -15 -20 -15 -15 0 -20 -7 -20 -26 0 -15 -8
-33 -17 -40 -17 -13 -17 -15 0 -28 9 -7 17 -25 17 -40 0 -23 4 -26 35 -26 28
0 35 -4 35 -20 0 -11 -7 -20 -15 -20 -10 0 -15 -10 -15 -30 0 -23 -4 -30 -20
-30 -11 0 -20 7 -20 15 0 8 -7 15 -15 15 -8 0 -15 -7 -15 -15 0 -8 -7 -15 -15
-15 -8 0 -15 -7 -15 -14 0 -11 -14 -16 -47 -18 -36 -2 -49 -7 -51 -20 -2 -11
3 -18 12 -18 9 0 16 -7 16 -15 0 -8 7 -15 15 -15 8 0 15 -7 15 -15 0 -8 -7
-15 -15 -15 -22 0 -19 -18 8 -46 16 -18 33 -24 65 -24 31 0 42 -4 42 -15 0 -8
7 -15 15 -15 9 0 18 -7 21 -15 4 -8 12 -15 19 -15 7 0 15 -9 18 -20 3 -11 10
-20 16 -20 6 0 11 9 11 20 0 11 -7 20 -15 20 -10 0 -15 10 -15 30 0 20 -5 30
-15 30 -10 0 -15 11 -15 35 0 24 5 35 15 35 8 0 15 -7 15 -15 0 -9 7 -18 15
-21 9 -4 15 -19 15 -35 0 -19 5 -29 15 -29 8 0 15 7 15 15 0 8 9 15 20 15 11
0 20 -7 20 -15 0 -10 10 -15 30 -15 20 0 30 -5 30 -15 0 -8 7 -15 15 -15 9 0
18 7 21 15 4 8 12 15 20 15 8 0 14 7 14 15 0 8 7 15 15 15 10 0 15 -10 15 -29
0 -16 -6 -31 -15 -35 -9 -3 -15 -18 -15 -36 0 -20 -5 -30 -15 -30 -8 0 -15 7
-15 15 0 10 -11 15 -35 15 -24 0 -35 -5 -35 -15 0 -31 -29 -15 -32 18 -4 41
-32 44 -36 4 -3 -22 1 -30 17 -34 12 -3 21 -12 21 -19 0 -8 7 -14 15 -14 8 0
15 7 15 15 0 8 7 15 15 15 8 0 15 -7 15 -15 0 -8 -7 -15 -15 -15 -10 0 -15
-11 -15 -35 0 -24 5 -35 15 -35 8 0 15 6 15 14 0 7 9 16 20 19 11 3 20 12 20
21 0 11 9 16 30 16 20 0 30 5 30 15 0 8 7 15 15 15 8 0 15 -7 15 -15 0 -8 -7
-15 -15 -15 -8 0 -15 -9 -15 -20 0 -11 -7 -20 -15 -20 -8 0 -15 -7 -15 -15 0
-8 -6 -15 -14 -15 -8 0 -16 -7 -20 -15 -6 -17 -66 -21 -66 -5 0 15 -38 50 -55
50 -8 0 -15 9 -15 20 0 11 -7 20 -15 20 -8 0 -15 -7 -15 -15 0 -9 7 -18 15
-21 8 -4 15 -12 15 -20 0 -10 -13 -14 -45 -14 -33 0 -45 -4 -45 -15 0 -8 7
-15 15 -15 8 0 15 -7 15 -15 0 -8 -7 -15 -15 -15 -8 0 -15 7 -15 15 0 8 -9 15
-20 15 -11 0 -20 -5 -20 -11 0 -7 -7 -17 -17 -24 -25 -19 -6 -35 43 -35 32 0
44 -4 44 -15 0 -8 7 -15 15 -15 11 0 15 12 15 50 l0 50 35 0 c33 0 35 -2 35
-35 0 -28 -4 -35 -20 -35 -11 0 -20 -7 -20 -15 0 -8 7 -15 15 -15 9 0 18 7 21
15 8 19 30 19 38 0 3 -8 10 -15 16 -15 5 0 10 7 10 15 0 8 9 15 20 15 16 0 20
-7 20 -30 0 -20 5 -30 15 -30 8 0 15 7 15 15 0 8 7 15 15 15 10 0 15 11 15 35
0 24 -5 35 -15 35 -10 0 -15 10 -15 30 0 20 5 30 15 30 8 0 15 -7 15 -15 0 -8
7 -15 15 -15 8 0 15 -6 15 -14 0 -7 9 -16 20 -19 11 -3 20 -12 20 -21 0 -9 7
-16 15 -16 8 0 15 -7 15 -15 0 -8 -7 -15 -15 -15 -10 0 -15 -10 -15 -30 0 -18
6 -33 15 -36 8 -4 15 -12 15 -20 0 -10 14 -14 50 -14 38 0 50 4 50 15 0 8 7
15 15 15 8 0 15 9 15 20 0 11 7 20 15 20 8 0 15 -6 15 -14 0 -17 27 -29 35
-16 8 14 -3 30 -21 30 -8 0 -14 7 -14 15 0 8 -7 15 -15 15 -8 0 -15 -7 -15
-15 0 -8 -7 -15 -15 -15 -8 0 -15 -7 -15 -15 0 -8 -9 -15 -20 -15 -11 0 -20 7
-20 15 0 10 -10 15 -30 15 -20 0 -30 5 -30 15 0 8 7 15 15 15 10 0 15 11 15
35 0 24 -5 35 -15 35 -8 0 -15 7 -15 15 0 10 10 15 29 15 28 0 30 -2 33 -47 3
-46 4 -48 36 -51 23 -2 32 1 32 12 0 9 12 16 32 18 37 4 50 27 19 35 -15 4
-21 13 -21 34 0 19 -5 29 -15 29 -8 0 -15 7 -15 15 0 8 -9 15 -19 15 -30 0
-51 11 -51 26 0 8 -7 14 -15 14 -8 0 -15 7 -15 15 0 8 7 15 15 15 8 0 15 -7
15 -15 0 -10 11 -15 35 -15 24 0 35 5 35 15 0 8 7 15 15 15 8 0 15 -7 15 -15
0 -8 9 -15 20 -15 18 0 20 7 20 80 0 73 -2 80 -20 80 -11 0 -20 -7 -20 -15 0
-8 -7 -15 -15 -15 -8 0 -15 -7 -15 -15 0 -8 7 -15 15 -15 8 0 15 -9 15 -20 0
-11 -5 -20 -11 -20 -6 0 -13 9 -16 20 -8 29 -73 29 -73 0 0 -21 -15 -27 -25
-10 -11 17 37 60 68 60 17 0 27 5 27 15 0 8 7 15 15 15 27 0 16 29 -12 32 -30
3 -47 38 -19 38 11 0 16 9 16 30 0 20 5 30 15 30 8 0 15 9 15 20 0 11 -7 20
-15 20 -8 0 -15 7 -15 15 0 30 -29 15 -32 -17 -4 -37 -27 -50 -35 -19 -8 31
-27 20 -31 -17 -3 -28 -7 -32 -33 -32 -19 0 -29 5 -29 15 0 8 7 15 15 15 8 0
15 9 15 20 0 11 -7 20 -15 20 -11 0 -15 12 -15 45 0 33 4 45 15 45 8 0 15 9
15 20 0 16 -7 20 -35 20 -24 0 -35 5 -35 15 0 10 11 15 35 15 24 0 35 -5 35
-15 0 -8 7 -15 15 -15 8 0 15 -9 15 -20 0 -11 -7 -20 -15 -20 -10 0 -15 -10
-15 -30 0 -20 5 -30 15 -30 8 0 15 7 15 15 0 8 6 15 14 15 8 0 16 -7 20 -15 3
-8 12 -15 21 -15 8 0 15 7 15 15 0 8 7 15 15 15 8 0 15 -7 15 -15 0 -8 7 -15
15 -15 10 0 15 10 15 29 0 20 6 30 20 34 25 6 29 67 5 67 -9 0 -18 7 -21 15
-11 27 -34 17 -34 -15 0 -19 -5 -30 -14 -30 -7 0 -16 -9 -19 -21 -8 -31 -31
-18 -35 19 -3 27 0 32 17 32 12 0 21 7 21 15 0 8 7 15 15 15 8 0 15 7 15 15 0
8 7 15 15 15 8 0 15 -7 15 -16 0 -9 7 -14 17 -12 25 5 28 29 4 35 -12 3 -21
12 -21 20 0 11 -11 13 -47 11 -49 -3 -68 -22 -34 -33 27 -8 27 -35 1 -35 -11
0 -20 -7 -20 -15 0 -8 -7 -15 -15 -15 -11 0 -15 12 -15 50 0 38 -4 50 -15 50
-8 0 -15 7 -15 15 0 11 -12 15 -50 15 -38 0 -50 -4 -50 -15 0 -8 7 -15 15 -15
8 0 15 -7 15 -15 0 -8 -7 -15 -15 -15 -8 0 -15 -9 -15 -20 0 -11 -7 -20 -14
-20 -11 0 -16 -14 -18 -47 -3 -48 -22 -69 -31 -33 -3 11 -12 20 -21 20 -11 0
-16 9 -16 30 0 28 3 30 35 30 23 0 35 5 35 14 0 8 7 16 15 20 8 3 15 12 15 21
0 8 -7 15 -15 15 -8 0 -15 7 -15 15 0 8 7 15 15 15 8 0 15 7 15 15 0 8 7 15
15 15 8 0 15 9 15 20 0 16 -7 20 -30 20 -20 0 -30 5 -30 15 0 8 -7 15 -15 15
-8 0 -15 -7 -15 -15 0 -8 7 -15 15 -15 10 0 15 -11 15 -35 0 -24 -5 -35 -14
-35 -9 0 -16 -12 -18 -27 -3 -30 -38 -47 -38 -19 0 9 -7 16 -15 16 -8 0 -15 7
-15 15 0 8 7 15 15 15 8 0 15 6 15 14 0 8 -7 16 -15 20 -11 4 -15 20 -15 56 0
38 -4 50 -15 50 -8 0 -15 5 -15 10 0 6 7 13 15 16 8 4 15 12 15 20 0 8 7 14
15 14 8 0 15 7 15 15 0 10 -10 15 -30 15 -20 0 -30 -5 -30 -15 0 -8 -7 -15
-15 -15 -9 0 -18 7 -21 15 -4 8 -12 15 -20 15 -8 0 -14 -7 -14 -15 0 -8 -7
-15 -15 -15 -8 0 -15 -7 -15 -15 0 -8 -6 -15 -14 -15 -8 0 -16 7 -20 15 -3 9
-18 15 -36 15 -20 0 -30 -5 -30 -15 0 -8 -6 -15 -14 -15 -9 0 -16 -12 -18 -32
-4 -37 -27 -50 -35 -19 -3 12 -12 21 -19 21 -8 0 -14 7 -14 15 0 8 -7 15 -15
15 -10 0 -15 10 -15 30 0 32 -23 42 -34 15 -3 -9 -18 -15 -36 -15 -20 0 -30 5
-30 15 0 8 7 15 15 15 8 0 15 9 15 20 0 11 -5 20 -11 20 -6 0 -13 -9 -16 -20z
m295 -98 c2 -7 -6 -12 -17 -12 -21 0 -27 11 -14 24 9 9 26 2 31 -12z m92 4 c0
-8 9 -18 21 -21 29 -10 18 -29 -19 -33 -29 -3 -32 -1 -32 26 0 16 3 32 7 35
11 12 23 8 23 -7z m-230 -106 c0 -21 -15 -27 -25 -10 -7 12 2 30 16 30 5 0 9
-9 9 -20z m268 -32 c2 -34 7 -48 18 -48 19 0 18 -26 -1 -34 -8 -3 -15 -13 -15
-21 0 -32 -35 -11 -38 23 -3 28 -7 32 -33 32 -19 0 -29 -5 -29 -15 0 -8 -7
-15 -15 -15 -10 0 -15 10 -15 30 0 20 5 30 15 30 8 0 15 7 15 15 0 8 6 15 14
15 8 0 16 -7 20 -15 3 -8 10 -15 16 -15 5 0 10 7 10 15 0 8 -7 15 -15 15 -15
0 -20 21 -8 34 4 4 19 6 33 4 22 -3 25 -8 28 -50z m-130 -100 c-7 -19 -38 -22
-38 -4 0 10 9 16 21 16 12 0 19 -5 17 -12z m62 -33 c0 -10 10 -15 30 -15 18 0
33 6 36 15 11 27 34 17 34 -15 0 -20 -5 -30 -15 -30 -8 0 -15 -9 -15 -20 0
-13 -7 -20 -20 -20 -11 0 -20 -7 -20 -15 0 -8 7 -15 15 -15 9 0 18 7 21 15 11
27 34 17 34 -15 0 -28 3 -30 35 -30 24 0 35 5 35 15 0 11 12 15 45 15 33 0 45
-4 45 -15 0 -8 -7 -15 -15 -15 -8 0 -15 -7 -15 -15 0 -8 -7 -15 -15 -15 -8 0
-15 7 -15 15 0 8 -7 15 -15 15 -8 0 -15 -7 -15 -15 0 -8 7 -15 15 -15 10 0 15
-11 15 -35 0 -24 -5 -35 -15 -35 -8 0 -15 -7 -15 -15 0 -8 7 -15 15 -15 8 0
15 7 15 15 0 8 7 15 15 15 10 0 15 -11 15 -35 0 -32 -2 -35 -30 -35 -27 0 -30
-3 -30 -30 0 -23 -4 -30 -20 -30 -11 0 -20 7 -20 15 0 10 -10 15 -30 15 -20 0
-30 5 -30 15 0 8 7 15 15 15 8 0 15 9 15 20 0 11 7 20 15 20 10 0 15 10 15 29
0 20 6 30 20 34 11 3 20 13 20 22 0 12 -8 16 -32 13 -29 -3 -33 -7 -36 -35 -2
-21 -9 -33 -18 -33 -8 0 -14 -6 -14 -14 0 -7 -9 -16 -20 -19 -11 -3 -20 -12
-20 -21 0 -9 -7 -16 -15 -16 -10 0 -15 11 -15 35 0 33 2 35 35 35 24 0 35 5
35 15 0 8 -7 15 -16 15 -9 0 -18 9 -21 20 -3 11 -12 20 -19 20 -8 0 -14 -9
-14 -20 0 -15 -7 -20 -26 -20 -15 0 -32 -7 -39 -17 -16 -22 -35 -8 -35 28 0
19 -5 29 -15 29 -8 0 -15 7 -15 15 0 8 7 15 15 15 8 0 15 -7 15 -15 0 -8 9
-15 20 -15 11 0 20 7 20 15 0 8 7 15 15 15 8 0 15 -7 15 -15 0 -8 7 -15 15
-15 8 0 15 7 15 15 0 8 7 15 15 15 8 0 15 6 15 14 0 8 -7 16 -15 20 -10 4 -15
20 -15 51 0 33 -4 45 -15 45 -8 0 -15 7 -15 15 0 8 7 15 15 15 8 0 15 -7 15
-15z m300 -196 c0 -17 -5 -20 -32 -17 -22 2 -34 9 -36 21 -3 14 4 17 32 17 30
0 36 -4 36 -21z m-460 -34 c0 -8 7 -15 15 -15 8 0 15 -7 15 -15 0 -8 7 -15 15
-15 8 0 15 -9 15 -20 0 -17 -7 -20 -50 -20 -43 0 -50 3 -50 20 0 13 7 20 20
20 11 0 20 7 20 15 0 8 -9 15 -20 15 -11 0 -20 7 -20 15 0 8 9 15 20 15 11 0
20 -7 20 -15z m520 -96 l0 -50 -47 3 c-46 3 -48 4 -51 36 -5 53 2 62 53 62
l45 0 0 -51z m-65 -99 c0 -23 -59 -20 -63 3 -3 15 2 18 30 15 21 -2 33 -8 33
-18z m35 -80 c0 -18 6 -33 15 -36 8 -4 15 -12 15 -20 0 -8 -7 -14 -15 -14 -8
0 -15 -7 -15 -15 0 -10 -11 -15 -35 -15 -24 0 -35 5 -35 15 0 8 -7 15 -15 15
-8 0 -15 7 -15 15 0 8 7 15 15 15 8 0 15 -7 15 -16 0 -9 7 -14 18 -12 13 2 18
15 20 51 2 33 7 47 18 47 9 0 14 -11 14 -30z m130 -85 c0 -8 -7 -15 -15 -15
-8 0 -15 7 -15 15 0 8 7 15 15 15 8 0 15 -7 15 -15z m-330 -65 c0 -11 -7 -20
-15 -20 -15 0 -21 21 -8 33 12 13 23 7 23 -13z"/>
<path d="M2470 1495 c0 -8 9 -15 20 -15 11 0 20 7 20 15 0 8 -9 15 -20 15 -11
0 -20 -7 -20 -15z"/>
<path d="M2740 1325 c0 -8 7 -15 15 -15 8 0 15 7 15 15 0 8 -7 15 -15 15 -8 0
-15 -7 -15 -15z"/>
<path d="M1460 1970 c0 -20 5 -30 15 -30 10 0 15 10 15 30 0 20 -5 30 -15 30
-10 0 -15 -10 -15 -30z"/>
<path d="M2930 1984 c0 -9 7 -14 17 -12 25 5 28 28 4 28 -12 0 -21 -6 -21 -16z"/>
<path d="M310 1955 c0 -8 7 -15 15 -15 8 0 15 7 15 15 0 8 -7 15 -15 15 -8 0
-15 -7 -15 -15z"/>
<path d="M870 1955 c0 -8 7 -15 15 -15 8 0 15 7 15 15 0 8 -7 15 -15 15 -8 0
-15 -7 -15 -15z"/>
<path d="M514 1925 c-4 -8 -14 -15 -24 -15 -29 0 -50 -11 -50 -26 0 -9 12 -14
35 -14 24 0 35 -5 35 -15 0 -8 7 -15 15 -15 8 0 15 -9 15 -20 0 -11 -7 -20
-15 -20 -8 0 -15 9 -15 20 0 17 -7 20 -49 20 -40 0 -50 -3 -54 -20 -3 -11 -12
-20 -21 -20 -9 0 -16 -7 -16 -15 0 -8 -7 -15 -15 -15 -8 0 -15 -7 -15 -15 0
-8 -7 -15 -15 -15 -19 0 -19 -26 0 -34 10 -4 15 -20 15 -51 0 -33 -4 -45 -15
-45 -12 0 -15 -14 -15 -65 0 -51 3 -65 15 -65 8 0 15 7 15 15 0 31 29 15 32
-17 2 -22 9 -34 21 -36 14 -3 17 4 17 32 0 29 -4 36 -20 36 -11 0 -20 7 -20
15 0 8 -7 15 -15 15 -8 0 -15 7 -15 15 0 8 7 15 15 15 12 0 15 16 15 81 0 72
2 81 20 86 11 3 20 12 20 19 0 8 7 14 15 14 8 0 15 -7 15 -15 0 -8 7 -15 15
-15 8 0 15 -6 15 -14 0 -29 63 -31 68 -3 3 13 -4 17 -32 17 -33 0 -36 2 -36
30 0 23 4 30 20 30 11 0 20 -7 20 -15 0 -8 7 -15 15 -15 8 0 15 7 15 15 0 8 7
15 15 15 8 0 15 9 15 20 0 11 7 20 15 20 11 0 15 11 15 36 0 45 -24 42 -28 -4
-3 -32 -32 -47 -32 -17 0 8 -7 15 -15 15 -8 0 -15 6 -15 14 0 8 7 16 15 20 17
6 21 36 5 36 -6 0 -13 -7 -16 -15z"/>
<path d="M935 1930 c-8 -12 34 -60 53 -60 20 0 14 -27 -8 -33 -11 -3 -20 -10
-20 -17 0 -7 9 -14 20 -17 11 -3 20 -12 20 -19 0 -8 7 -14 15 -14 8 0 15 7 15
15 0 8 -7 15 -15 15 -8 0 -15 9 -15 20 0 11 7 20 15 20 11 0 15 12 15 50 l0
50 -44 0 c-25 0 -48 -5 -51 -10z"/>
<path d="M1955 1930 c-7 -12 2 -30 16 -30 5 0 9 9 9 20 0 21 -15 27 -25 10z"/>
<path d="M323 1903 c-20 -7 -17 -103 2 -103 8 0 15 9 15 20 0 11 7 20 15 20 8
0 15 7 15 15 0 8 6 15 14 15 18 0 29 16 21 30 -8 13 -35 1 -35 -16 0 -21 -28
-17 -32 4 -2 11 -9 17 -15 15z"/>
<path d="M2746 1903 c-13 -13 -6 -63 9 -63 10 0 15 10 15 29 0 30 -12 46 -24
34z"/>
<path d="M770 1776 c0 -64 16 -98 27 -57 3 12 12 21 19 21 19 0 18 56 -1 64
-8 3 -15 12 -15 21 0 8 -7 15 -15 15 -12 0 -15 -14 -15 -64z"/>
<path d="M1423 1788 c2 -7 10 -13 17 -13 7 0 15 6 18 13 2 7 -5 12 -18 12 -13
0 -20 -5 -17 -12z"/>
<path d="M572 1738 c3 -29 7 -33 36 -36 42 -4 37 -26 -6 -30 -28 -3 -32 -7
-32 -33 0 -19 5 -29 15 -29 8 0 15 7 15 15 0 10 11 15 35 15 l35 0 0 65 c0 51
-3 65 -15 65 -8 0 -15 -7 -15 -15 0 -8 -7 -15 -15 -15 -9 0 -18 7 -21 15 -4 8
-13 15 -21 15 -10 0 -13 -9 -11 -32z"/>
<path d="M1520 1755 c0 -8 9 -15 20 -15 11 0 20 -6 20 -14 0 -7 -9 -16 -20
-19 -11 -3 -20 -12 -20 -21 0 -12 10 -16 35 -16 33 0 35 2 35 35 0 24 -5 35
-15 35 -8 0 -15 7 -15 15 0 8 -9 15 -20 15 -11 0 -20 -7 -20 -15z"/>
<path d="M1460 1720 c0 -11 7 -20 15 -20 8 0 15 9 15 20 0 11 -7 20 -15 20 -8
0 -15 -9 -15 -20z"/>
<path d="M2152 1724 c4 -21 22 -23 26 -1 2 10 -3 17 -13 17 -10 0 -15 -6 -13
-16z"/>
<path d="M2210 1725 c0 -9 7 -18 15 -21 8 -4 15 -12 15 -20 0 -19 29 -18 36 1
4 8 12 15 20 15 8 0 14 9 14 20 0 11 -7 20 -15 20 -8 0 -15 -7 -15 -15 0 -8
-9 -15 -20 -15 -11 0 -20 7 -20 15 0 8 -7 15 -15 15 -8 0 -15 -7 -15 -15z"/>
<path d="M417 1703 c-13 -12 -7 -33 8 -33 10 0 15 -10 15 -30 0 -20 -5 -30
-15 -30 -10 0 -15 -11 -15 -35 0 -24 5 -35 15 -35 8 0 15 7 15 15 0 12 14 15
65 15 58 0 65 2 65 20 0 16 -7 20 -30 20 -20 0 -30 5 -30 15 0 8 7 15 15 15 8
0 15 7 15 15 0 8 -7 15 -15 15 -8 0 -15 -7 -15 -15 0 -8 -9 -15 -20 -15 -11 0
-20 7 -20 15 0 8 -7 15 -15 15 -8 0 -15 9 -15 20 0 20 -11 26 -23 13z"/>
<path d="M707 1703 c-4 -3 -7 -19 -7 -35 0 -18 -5 -28 -15 -28 -8 0 -15 -7
-15 -15 0 -10 -11 -15 -35 -15 -33 0 -35 -2 -35 -35 0 -24 -5 -35 -15 -35 -8
0 -15 -7 -15 -15 0 -8 7 -15 15 -15 8 0 15 -7 15 -15 0 -8 9 -15 20 -15 11 0
20 7 20 15 0 8 -9 15 -20 15 -11 0 -20 7 -20 15 0 8 9 15 20 15 11 0 20 7 20
15 0 8 7 15 15 15 8 0 15 9 15 20 0 11 7 20 15 20 8 0 15 7 15 15 0 10 11 15
35 15 24 0 35 5 35 15 0 8 -6 15 -14 15 -7 0 -16 9 -19 20 -5 20 -18 26 -30
13z"/>
<path d="M1360 1625 c0 -8 6 -15 14 -15 7 0 16 -9 19 -21 4 -16 12 -20 33 -17
34 4 44 27 15 35 -12 3 -21 12 -21 19 0 9 -11 14 -30 14 -20 0 -30 -5 -30 -15z"/>
<path d="M740 1560 c0 -43 -3 -50 -20 -50 -16 0 -20 7 -20 30 0 20 -5 30 -15
30 -8 0 -15 -7 -15 -15 0 -8 -7 -15 -15 -15 -8 0 -15 -7 -15 -15 0 -8 6 -15
14 -15 9 0 16 -12 18 -32 3 -32 5 -33 51 -36 37 -2 47 0 47 13 0 8 -7 18 -15
21 -8 4 -15 12 -15 20 0 8 7 14 15 14 8 0 15 7 15 15 0 10 10 15 30 15 28 0
30 3 30 35 0 24 -5 35 -15 35 -8 0 -15 -9 -15 -20 0 -11 -5 -20 -11 -20 -6 0
-13 9 -16 20 -3 11 -12 20 -19 20 -10 0 -14 -14 -14 -50z"/>
<path d="M1390 1525 c0 -8 7 -15 15 -15 10 0 15 -11 15 -35 l0 -35 50 0 c43 0
50 3 50 20 0 16 -7 20 -30 20 -27 0 -30 3 -30 30 0 28 -3 30 -35 30 -24 0 -35
-5 -35 -15z"/>
<path d="M1260 1495 c0 -8 6 -15 14 -15 7 0 16 -9 19 -20 3 -11 12 -20 21 -20
9 0 16 8 16 20 0 13 -7 20 -20 20 -11 0 -20 7 -20 15 0 8 -7 15 -15 15 -8 0
-15 -7 -15 -15z"/>
<path d="M2057 1473 c-14 -13 -7 -63 8 -63 8 0 15 -7 15 -15 0 -10 11 -15 35
-15 28 0 35 -4 35 -20 0 -11 7 -20 15 -20 8 0 15 9 15 20 0 11 -7 20 -15 20
-8 0 -15 7 -15 15 0 8 7 15 15 15 8 0 15 7 15 15 0 8 -6 15 -14 15 -7 0 -16 9
-19 20 -3 11 -10 20 -17 20 -7 0 -14 -9 -17 -20 -3 -11 -10 -20 -15 -20 -5 0
-12 9 -15 20 -5 21 -15 25 -26 13z"/>
<path d="M2930 1395 c0 -8 9 -15 20 -15 11 0 20 7 20 15 0 8 -9 15 -20 15 -11
0 -20 -7 -20 -15z"/>
<path d="M2180 1265 c0 -8 7 -15 15 -15 10 0 15 -10 15 -30 0 -18 6 -33 15
-36 8 -4 15 -12 15 -20 0 -8 9 -14 20 -14 11 0 20 7 20 15 0 8 7 15 15 15 10
0 15 -11 15 -35 0 -24 5 -35 15 -35 8 0 15 -7 15 -15 0 -8 9 -15 20 -15 11 0
20 6 20 14 0 8 7 16 15 20 19 7 20 66 1 66 -8 0 -16 -7 -20 -15 -3 -8 -12 -15
-21 -15 -8 0 -15 7 -15 15 0 8 -7 15 -15 15 -8 0 -15 7 -15 15 0 10 -10 15
-31 15 -22 0 -32 5 -36 20 -3 11 -12 20 -19 20 -8 0 -14 7 -14 15 0 8 -7 15
-15 15 -8 0 -15 -7 -15 -15z"/>
<path d="M2310 1265 c0 -8 7 -15 15 -15 10 0 15 -11 15 -35 0 -28 4 -35 20
-35 16 0 20 7 20 35 0 28 -4 35 -20 35 -11 0 -20 7 -20 15 0 8 -7 15 -15 15
-8 0 -15 -7 -15 -15z"/>
<path d="M2117 1243 c-4 -3 -7 -26 -7 -50 0 -43 0 -43 35 -43 25 0 35 -4 35
-15 0 -9 7 -18 15 -21 9 -4 15 -19 15 -35 0 -19 5 -29 15 -29 8 0 15 -7 15
-15 0 -10 -10 -15 -30 -15 -20 0 -30 5 -30 15 0 10 -11 15 -35 15 -39 0 -50
24 -15 33 33 8 23 27 -15 27 -32 0 -35 -2 -35 -30 0 -28 -3 -30 -35 -30 -39 0
-50 24 -15 33 15 4 20 14 20 36 0 36 -28 44 -37 11 -3 -11 -12 -20 -19 -20 -9
0 -14 -11 -14 -30 0 -20 5 -30 15 -30 10 0 15 -11 15 -35 0 -33 2 -35 34 -35
25 0 35 5 39 20 3 11 10 20 16 20 6 0 11 -9 11 -20 0 -11 -7 -20 -15 -20 -8 0
-15 -7 -15 -15 0 -10 10 -15 30 -15 18 0 33 6 36 15 4 10 20 15 50 15 32 0 44
-4 44 -15 0 -8 -7 -15 -15 -15 -8 0 -15 -7 -15 -15 0 -8 -7 -15 -15 -15 -8 0
-15 -6 -15 -14 0 -8 -7 -16 -15 -20 -8 -3 -15 -12 -15 -21 0 -8 -9 -15 -20
-15 -15 0 -20 -7 -20 -29 0 -16 -6 -31 -15 -35 -30 -11 -17 -36 20 -36 24 0
35 -5 35 -15 0 -10 10 -15 30 -15 20 0 30 5 30 15 0 10 10 15 31 15 22 0 32 5
36 20 3 11 12 20 19 20 10 0 14 14 14 51 0 57 -23 66 -28 11 -2 -24 -8 -32
-23 -32 -10 0 -19 7 -19 15 0 8 -7 15 -15 15 -8 0 -15 -7 -15 -15 0 -8 -7 -15
-15 -15 -8 0 -15 -7 -15 -15 0 -8 7 -15 15 -15 8 0 15 -9 15 -20 0 -16 -7 -20
-30 -20 -29 0 -30 1 -30 50 0 38 4 50 15 50 8 0 15 7 15 15 0 10 10 15 29 15
20 0 30 6 34 20 3 11 12 20 21 20 13 0 16 12 16 65 l0 65 30 0 c35 0 38 12 10
40 -28 28 -40 25 -40 -10 0 -23 -4 -30 -20 -30 -17 0 -20 7 -20 50 0 49 -1 50
-30 50 -27 0 -30 3 -30 30 0 19 -5 30 -14 30 -7 0 -16 9 -19 20 -5 20 -18 26
-30 13z m123 -438 c0 -8 -7 -15 -15 -15 -8 0 -15 7 -15 15 0 8 7 15 15 15 8 0
15 -7 15 -15z"/>
<path d="M2050 1195 c0 -8 7 -15 15 -15 8 0 15 7 15 15 0 8 -7 15 -15 15 -8 0
-15 -7 -15 -15z"/>
<path d="M2616 883 c-12 -12 -6 -33 9 -33 11 0 15 -12 15 -50 0 -38 -4 -50
-15 -50 -10 0 -15 10 -15 31 0 22 -5 32 -20 36 -11 3 -20 12 -20 19 0 8 -7 14
-15 14 -8 0 -15 -7 -15 -15 0 -8 -7 -15 -15 -15 -8 0 -15 -6 -15 -14 0 -7 -9
-16 -21 -19 -22 -6 -22 -28 0 -35 7 -2 15 5 18 17 7 27 33 28 33 1 0 -11 7
-20 15 -20 8 0 15 -7 15 -15 0 -10 11 -15 35 -15 24 0 35 5 35 15 0 8 7 15 15
15 8 0 15 7 15 15 0 9 7 18 15 21 8 4 15 12 15 20 0 8 9 14 20 14 16 0 20 -7
20 -35 0 -28 -4 -35 -20 -35 -22 0 -27 -15 -8 -26 6 -4 16 0 23 9 7 10 17 17
24 17 6 0 11 7 11 15 0 9 7 18 15 21 8 4 15 12 15 20 0 8 -7 14 -15 14 -8 0
-15 7 -15 15 0 12 -14 15 -65 15 -50 0 -65 3 -65 14 0 17 -14 28 -24 19z"/>
<path d="M2834 805 c-4 -8 -12 -15 -20 -15 -11 0 -14 -17 -14 -70 0 -56 3 -70
15 -70 8 0 15 -7 15 -15 0 -10 11 -15 35 -15 24 0 35 -5 35 -15 0 -8 7 -15 15
-15 8 0 15 6 15 14 0 7 9 16 20 19 11 3 20 10 20 15 0 5 -9 12 -20 15 -11 3
-20 12 -20 20 0 8 9 17 20 20 23 6 27 27 5 27 -9 0 -18 7 -21 15 -4 8 -12 15
-20 15 -8 0 -14 -7 -14 -15 0 -8 -7 -15 -15 -15 -8 0 -15 7 -15 15 0 8 7 15
15 15 8 0 15 9 15 20 0 11 -7 20 -15 20 -8 0 -15 7 -15 15 0 8 -7 15 -15 15
-9 0 -18 -7 -21 -15z m66 -135 c0 -15 -7 -20 -29 -20 -17 0 -33 5 -36 10 -11
17 5 30 36 30 22 0 29 -5 29 -20z"/>
<path d="M2930 805 c0 -8 9 -15 20 -15 11 0 20 7 20 15 0 8 -9 15 -20 15 -11
0 -20 -7 -20 -15z"/>
<path d="M310 445 l0 -115 115 0 115 0 0 115 0 115 -115 0 -115 0 0 -115z
m198 -2 l-3 -78 -82 -3 -83 -3 0 81 0 80 85 0 86 0 -3 -77z"/>
<path d="M372 443 l3 -48 48 -3 47 -3 0 50 0 51 -51 0 -50 0 3 -47z"/>
<path d="M770 505 c0 -8 7 -15 15 -15 8 0 15 7 15 15 0 8 -7 15 -15 15 -8 0
-15 -7 -15 -15z"/>
<path d="M2280 476 c0 -7 -9 -16 -21 -19 -16 -4 -20 -12 -17 -34 2 -23 8 -28
36 -31 32 -3 48 -32 17 -32 -8 0 -15 -7 -15 -15 0 -10 10 -15 30 -15 27 0 30
3 30 30 0 20 -5 30 -15 30 -11 0 -15 12 -15 50 0 38 -4 50 -15 50 -8 0 -15 -6
-15 -14z"/>
<path d="M2610 461 c0 -16 6 -31 15 -35 9 -3 15 -18 15 -36 0 -28 -3 -30 -35
-30 -24 0 -35 5 -35 15 0 8 -7 15 -15 15 -8 0 -15 9 -15 20 0 11 7 20 15 20 8
0 15 7 15 15 0 8 -7 15 -15 15 -8 0 -15 -6 -15 -14 0 -8 -7 -16 -15 -20 -9 -3
-15 -18 -15 -36 0 -27 3 -30 30 -30 20 0 30 -5 30 -15 0 -12 16 -15 85 -15 69
0 85 3 85 15 0 8 7 15 15 15 8 0 15 -7 15 -15 0 -11 12 -15 50 -15 38 0 50 4
50 15 0 8 7 15 15 15 8 0 15 -7 15 -15 0 -8 7 -15 15 -15 8 0 15 7 15 15 0 8
-7 15 -15 15 -31 0 -15 29 18 32 20 2 32 8 32 18 0 10 -12 16 -32 18 -21 2
-33 9 -33 18 0 8 -7 14 -15 14 -10 0 -15 -11 -15 -35 0 -28 -4 -35 -20 -35
-11 0 -20 -7 -20 -15 0 -8 -7 -15 -15 -15 -8 0 -15 7 -15 15 0 10 -10 15 -30
15 -20 0 -30 -5 -30 -15 0 -10 -11 -15 -35 -15 -24 0 -35 5 -35 15 0 8 7 15
15 15 8 0 15 9 15 20 0 11 -7 20 -15 20 -8 0 -15 7 -15 15 0 8 -7 15 -15 15
-8 0 -15 7 -15 15 0 8 -7 15 -15 15 -10 0 -15 -10 -15 -29z"/>
<path d="M2440 410 c0 -11 7 -20 15 -20 8 0 15 9 15 20 0 11 -7 20 -15 20 -8
0 -15 -9 -15 -20z"/>
<path d="M2807 423 c-13 -12 -7 -33 8 -33 8 0 15 9 15 20 0 20 -11 26 -23 13z"/>
<path d="M570 360 c0 -28 3 -30 35 -30 24 0 35 5 35 15 0 8 -7 15 -15 15 -9 0
-18 7 -21 15 -11 27 -34 17 -34 -15z"/>
<path d="M740 345 c0 -8 7 -15 15 -15 8 0 15 7 15 15 0 8 -7 15 -15 15 -8 0
-15 -7 -15 -15z"/>
<path d="M1390 345 c0 -8 7 -15 15 -15 8 0 15 7 15 15 0 8 -7 15 -15 15 -8 0
-15 -7 -15 -15z"/>
<path d="M1880 345 c0 -8 9 -15 20 -15 11 0 20 7 20 15 0 8 -9 15 -20 15 -11
0 -20 -7 -20 -15z"/>
</g>
</svg>
